<svg width="662" height="688" viewBox="0 0 662 688" fill="none" xmlns="http://www.w3.org/2000/svg">
<path d="M359.679 302.247C369.263 299.207 377.893 309 373.674 318.126L346.627 376.621C344.511 381.197 345.603 386.617 349.326 390.016L396.915 433.474C404.339 440.254 400.174 452.625 390.16 453.534L325.979 459.358C320.958 459.814 316.811 463.469 315.728 468.393L301.886 531.335C299.727 541.154 286.931 543.733 281.137 535.515L244.002 482.845C241.097 478.724 235.858 476.96 231.052 478.484L169.623 497.968C160.039 501.008 151.408 491.215 155.627 482.089L182.674 423.594C184.79 419.018 183.698 413.599 179.975 410.199L132.387 366.741C124.962 359.961 129.128 347.59 139.141 346.682L203.323 340.857C208.344 340.401 212.491 336.746 213.574 331.822L227.415 268.881C229.574 259.061 242.371 256.483 248.164 264.7L285.299 317.371C288.204 321.491 293.444 323.255 298.249 321.731L359.679 302.247Z" fill="#F5F3E6"/>
<path d="M315.474 341.399C321.863 339.373 327.617 345.901 324.804 351.985L310.863 382.138C309.452 385.188 310.18 388.801 312.662 391.067L337.192 413.468C342.141 417.988 339.365 426.236 332.689 426.841L299.606 429.844C296.259 430.148 293.494 432.584 292.772 435.867L285.637 468.311C284.198 474.857 275.667 476.576 271.804 471.098L252.663 443.948C250.726 441.201 247.233 440.025 244.029 441.041L212.365 451.085C205.975 453.111 200.222 446.583 203.035 440.499L216.976 410.346C218.387 407.296 217.659 403.683 215.177 401.417L190.647 379.016C185.697 374.496 188.474 366.248 195.15 365.643L228.233 362.64C231.58 362.336 234.345 359.9 235.067 356.617L242.202 324.173C243.641 317.627 252.172 315.908 256.034 321.386L275.176 348.536C277.113 351.283 280.606 352.459 283.809 351.443L315.474 341.399Z" fill="#18568F"/>
<rect x="158.143" y="592.423" width="358.55" height="89.6376" rx="32.0134" transform="rotate(-55.4914 158.143 592.423)" fill="#EBA0A5"/>
<path d="M239.021 585.968C239.489 586.342 239.639 586.652 239.469 586.898L237.781 589.467C237.297 590.171 236.941 590.651 236.713 590.908C236.436 591.236 236.196 591.434 235.994 591.502C235.78 591.511 235.503 591.424 235.163 591.241C234.811 590.999 234.565 590.83 234.424 590.733L228.726 586.816L208.044 572.597L203.928 569.768C203.893 569.743 203.788 569.671 203.612 569.55C203.436 569.429 203.331 569.28 203.299 569.101C203.277 568.983 203.616 568.413 204.317 567.393L206.655 564.106C206.763 564.024 206.906 563.967 207.084 563.934C207.227 563.877 207.316 563.861 207.351 563.885C208.947 564.878 211.24 566.403 214.23 568.458L218.52 571.486C218.672 571.642 218.842 571.733 219.031 571.759C219.185 571.762 219.322 571.675 219.443 571.499L219.516 571.393C219.94 570.701 220.327 570.138 220.677 569.705C220.991 569.248 221.245 568.878 221.438 568.597L222.381 567.225C222.865 566.522 223.222 565.964 223.453 565.553C223.477 565.518 223.527 565.371 223.602 565.111C222.957 564.617 222.073 563.983 220.947 563.209C219.821 562.435 218.726 561.656 217.659 560.871L212.525 557.263C212.244 557.07 212.087 556.884 212.054 556.706C212.045 556.493 212.137 556.245 212.331 555.964C212.887 555.155 213.292 554.527 213.547 554.081C214.442 552.78 215.065 551.836 215.417 551.249C215.709 550.673 216.102 550.554 216.594 550.892L216.753 551.001C217.935 551.918 225.326 557.103 238.925 566.556L248.033 572.973C248.512 573.406 248.792 573.753 248.871 574.015C248.95 574.276 248.838 574.666 248.534 575.182C247.89 576.345 247.084 577.63 246.117 579.037C245.875 579.389 245.541 579.573 245.115 579.591C244.712 579.573 244.3 579.42 243.878 579.129L237.319 574.542C233.31 571.786 230.824 570.051 229.864 569.339C229.653 569.194 229.458 569.138 229.28 569.171C229.126 569.169 228.947 569.278 228.742 569.5C227.05 571.963 225.763 573.797 224.881 575.004C224.591 575.426 224.674 575.794 225.132 576.109L236.366 584.066C236.577 584.211 236.947 584.465 237.474 584.828C238.026 585.155 238.542 585.535 239.021 585.968ZM231.596 539.13C229.925 541.711 229.023 543.137 228.889 543.407C228.851 543.537 228.867 543.703 228.935 543.905C228.968 544.083 229.02 544.196 229.09 544.245C230.967 545.432 232.387 546.304 233.35 546.863C233.421 546.911 233.545 546.919 233.723 546.886C233.925 546.818 234.051 546.748 234.099 546.678L238.165 540.538C238.576 539.94 238.989 539.603 239.405 539.526C239.785 539.425 240.251 539.538 240.803 539.865C241.084 540.059 241.418 540.289 241.805 540.555C242.216 540.785 242.656 541.088 243.124 541.461C243.755 542.051 243.755 542.879 243.124 543.948C242.773 544.535 242.44 545.057 242.125 545.514C241.8 545.912 241.528 546.269 241.311 546.586L240.368 547.958C239.908 548.626 239.587 549.13 239.405 549.471C239.15 549.917 239.056 550.242 239.124 550.444C239.182 550.587 239.421 550.803 239.843 551.094C240.817 551.711 242.852 553.084 245.947 555.212C248.655 557.074 250.127 558.06 250.362 558.17C250.492 558.208 250.646 558.21 250.824 558.177C251.026 558.109 251.164 558.022 251.236 557.916L253.848 554.117L257.729 548.472C257.802 548.367 257.911 548.208 258.056 547.997C258.201 547.786 258.369 547.617 258.56 547.489C258.751 547.362 259.047 547.384 259.447 547.555C259.777 547.678 260.329 548.006 261.103 548.538L263.441 550.223C263.722 550.417 263.913 550.703 264.014 551.084C264.104 551.405 264.058 551.736 263.876 552.076L260.938 556.35L253.828 566.691C253.586 567.043 253.258 567.257 252.842 567.334C252.451 567.376 252.067 567.293 251.691 567.087C249.673 565.803 243.142 561.364 232.097 553.771C228.193 551.087 225.402 549.194 223.725 548.093C222.036 546.932 221.016 546.231 220.665 545.989C220.032 545.554 219.908 545.055 220.295 544.492L229.802 530.438C230.189 529.875 230.62 529.55 231.095 529.462C231.594 529.339 232.09 529.446 232.582 529.785L233.021 530.164C233.359 530.5 233.915 530.935 234.689 531.467C235.065 531.673 235.297 532.014 235.385 532.489C235.462 532.904 235.379 533.288 235.138 533.64C234.447 534.719 233.267 536.549 231.596 539.13ZM252.767 524.158C253.444 524.831 253.876 525.258 254.063 525.438L268.252 541.642C268.87 542.326 269.266 542.805 269.439 543.08C269.578 543.33 269.598 543.603 269.499 543.898C269.365 544.168 269.014 544.678 268.447 545.428C267.794 546.377 267.063 546.988 266.254 547.261C265.647 547.465 265.15 547.435 264.763 547.169C264.588 547.048 264.459 546.933 264.378 546.826L261.215 543.175C247.41 527.468 240.181 519.183 239.531 518.322C239.403 518.13 239.312 517.886 239.257 517.59C239.202 517.293 239.205 517.062 239.267 516.897C239.476 516.367 240.305 515.047 241.756 512.937C241.829 512.831 241.954 512.762 242.132 512.729C242.299 512.637 242.43 512.597 242.525 512.61C243.798 513.019 249.046 514.841 258.271 518.074C267.495 521.308 274.08 523.634 278.026 525.052C278.45 525.188 279.126 525.524 280.054 526.058C280.195 526.155 280.268 526.386 280.275 526.754C280.225 526.978 280.111 527.444 279.935 528.152C279.784 528.824 279.603 529.426 279.395 529.955C279.223 530.356 279.101 530.608 279.029 530.714C278.714 531.171 278.278 531.467 277.719 531.601C277.161 531.735 276.552 531.679 275.893 531.433C273.384 530.485 270.11 529.296 266.069 527.865C262.029 526.434 258.677 525.243 256.015 524.294L252.5 522.965C252.194 522.806 252.005 522.78 251.933 522.886C251.836 523.026 252.114 523.45 252.767 524.158ZM260.369 508.58C258.645 507.395 257.597 506.623 257.223 506.262C255.871 504.763 254.802 503.38 254.015 502.114C253.228 500.848 252.813 499.19 252.771 497.141C252.719 495.033 253.563 492.713 255.304 490.18C256.755 488.07 258.437 486.791 260.349 486.345C262.251 485.839 264.027 485.817 265.678 486.279C267.294 486.716 268.594 487.274 269.579 487.951C271.96 489.536 275.014 491.61 278.743 494.173C282.495 496.701 285.55 498.776 287.907 500.396C288.892 501.073 289.893 502.253 290.911 503.937C291.929 505.621 292.529 507.536 292.711 509.682C292.894 511.827 292.284 513.92 290.881 515.96C288.197 519.865 285.331 521.546 282.284 521.006C279.237 520.465 276.536 519.384 274.179 517.764L271.083 515.713C264.995 511.683 261.424 509.306 260.369 508.58ZM269.866 496.462C268.107 495.253 267.163 494.63 267.033 494.592C266.281 494.179 265.581 493.879 264.933 493.692C264.308 493.47 263.635 493.395 262.911 493.468C261.737 493.593 260.86 494.078 260.28 494.922C259.917 495.449 259.719 496.039 259.686 496.689C259.642 497.281 259.782 497.869 260.105 498.454C260.646 499.551 261.355 500.478 262.232 501.237C262.641 501.621 265.026 503.313 269.388 506.312L276.088 510.918L278.463 512.551C279.518 513.276 280.454 513.609 281.272 513.55C282.114 513.455 282.991 512.97 283.904 512.096C284.011 512.014 284.15 511.85 284.319 511.604C284.827 510.866 285.064 509.993 285.031 508.986C284.963 507.955 284.602 507.162 283.946 506.608C283.21 505.947 281.324 504.546 278.288 502.407C275.241 500.209 272.434 498.227 269.866 496.462ZM268.705 473.851L270.555 471.161C270.628 471.055 273.17 471.689 278.183 473.063C283.16 474.413 286.721 475.411 288.867 476.057C289.396 476.266 289.71 476.3 289.806 476.16C289.879 476.054 289.793 475.84 289.549 475.517L278.057 460.701C277.906 460.545 277.85 460.325 277.889 460.041C277.953 459.722 278.009 459.528 278.057 459.458L281.177 454.92C281.201 454.885 281.267 454.827 281.375 454.745C281.482 454.664 281.625 454.607 281.803 454.574C281.946 454.517 282.088 454.537 282.229 454.633C287.175 457.309 294.212 461.162 303.34 466.194C312.491 471.191 317.143 473.768 317.295 473.924C317.541 474.093 317.348 474.789 316.714 476.011C316.141 477.223 315.805 477.899 315.709 478.039C315.32 478.756 314.917 479.153 314.502 479.23C314.121 479.331 313.555 479.175 312.804 478.761C311.465 477.996 308.286 476.329 303.267 473.759C298.213 471.165 294.763 469.44 292.916 468.585C292.646 468.451 292.474 468.437 292.402 468.542C292.353 468.613 292.433 468.797 292.642 469.096C294.177 471.084 295.886 473.269 297.77 475.652C299.678 478 301.086 479.719 301.994 480.809C302.225 481.227 302.322 481.501 302.284 481.63C302.049 482.349 301.702 483.043 301.242 483.711C300.855 484.274 300.506 484.707 300.194 485.01C299.917 485.338 299.6 485.535 299.244 485.601C298.877 485.607 298.451 485.548 297.968 485.422C296.73 485.038 295.309 484.656 293.704 484.278C292.088 483.841 290.956 483.529 290.308 483.342C287.217 482.564 285.265 482.05 284.451 481.802C284.381 481.753 284.286 481.74 284.168 481.762C284.038 481.725 283.961 481.724 283.937 481.759C283.864 481.864 284.092 482.099 284.619 482.461C286.703 484.101 289.46 486.307 292.89 489.079C296.284 491.827 299.14 494.153 301.457 496.057C301.855 496.382 301.908 496.756 301.618 497.178C301.449 497.424 301.17 497.906 300.781 498.623C300.381 499.28 299.994 499.843 299.62 500.311C298.778 501.234 297.9 501.382 296.985 500.753C296.774 500.608 296.61 500.469 296.494 500.337C295.489 499.388 285.904 491.555 267.739 476.839C267.247 476.5 267.17 476.085 267.508 475.592L268.705 473.851ZM309.305 461.36L291.868 441.291C291.94 441.185 292.545 440.306 293.681 438.653C294.807 436.94 295.535 436.146 295.864 436.269C296.843 436.579 300.599 438.047 307.132 440.674C313.666 443.301 317.81 444.959 319.564 445.647L330.406 449.993C330.901 450.178 331.271 450.355 331.517 450.524C331.869 450.766 332.078 451.065 332.144 451.421C332.175 451.753 332.109 452.226 331.946 452.839C331.709 453.712 331.424 454.578 331.092 455.437C330.969 455.767 330.871 455.985 330.799 456.09C330.629 456.337 330.408 456.47 330.136 456.489C329.898 456.533 329.58 456.47 329.179 456.298L323 453.759C322.54 453.599 322.166 453.729 321.875 454.151L317.902 460.044C317.805 460.185 317.779 460.374 317.823 460.611C317.832 460.825 317.882 461.015 317.974 461.182C318.229 461.564 318.841 462.295 319.808 463.375C320.74 464.43 321.287 465.065 321.45 465.281C321.833 465.854 322.05 466.367 322.103 466.817C322.145 467.209 322.02 467.615 321.73 468.037C321.634 468.178 321.405 468.435 321.044 468.809C320.625 469.194 320.276 469.55 319.999 469.877C319.722 470.205 319.493 470.462 319.313 470.649C318.772 471.21 318.256 471.321 317.763 470.982C317.587 470.861 317.476 470.759 317.43 470.675L309.305 461.36ZM304.128 445.835C304.08 445.905 304.218 446.156 304.543 446.587C304.974 447.09 306.368 448.566 308.725 451.015C310.591 452.972 311.95 454.424 312.801 455.372C313.15 455.767 313.458 455.772 313.724 455.385C314.304 454.541 315.019 453.426 315.867 452.041C316.109 451.689 316.231 451.436 316.233 451.283C316.26 451.093 316.167 450.926 315.956 450.781C315.71 450.612 315.505 450.497 315.34 450.435C315.01 450.312 313.399 449.567 310.505 448.199L307.383 446.752C305.382 445.894 304.297 445.589 304.128 445.835ZM296.384 413.7C296.828 413.28 297.168 413.125 297.403 413.235C298.472 413.866 299.427 414.135 300.269 414.04C301.111 413.945 301.931 413.318 302.729 412.157C303.333 411.278 303.425 410.279 303.003 409.16C302.569 407.981 301.932 407.025 301.09 406.291C300.879 406.146 300.979 405.774 301.39 405.176C301.874 404.473 302.517 403.801 303.319 403.161C304.146 402.486 304.652 402.239 304.839 402.419C305.774 403.321 306.595 404.274 307.303 405.278C308.01 406.283 308.412 407.621 308.506 409.292C308.601 410.962 307.971 412.783 306.617 414.752C304.489 417.848 302.411 419.475 300.384 419.636C298.357 419.796 296.553 419.333 294.97 418.244L294.162 417.611C293.986 417.49 293.996 417.212 294.191 416.777C294.352 416.318 294.626 415.806 295.013 415.244C295.472 414.575 295.929 414.061 296.384 413.7ZM325.353 433.383C324.995 432.775 324.63 432.213 324.259 431.698C323.645 430.707 321.634 427.718 318.224 422.732C314.803 417.687 312.42 414.184 311.075 412.223C310.923 412.067 311.246 411.409 312.044 410.248L312.806 409.14C312.975 408.894 313.174 408.642 313.403 408.385C313.621 408.068 313.797 407.775 313.931 407.504C314.113 407.164 314.293 406.977 314.471 406.944C314.674 406.876 314.933 406.95 315.25 407.168L324.061 413.226L347.645 429.44C347.891 429.609 347.543 430.379 346.599 431.751L345.205 433.667C344.807 434.171 344.478 434.385 344.219 434.31C343.959 434.235 343.343 433.889 342.369 433.271L325.571 421.878C325.501 421.83 325.401 421.787 325.271 421.75C325.106 421.688 324.999 421.693 324.951 421.763C324.903 421.833 325.174 422.305 325.766 423.178C327.689 426.106 330.295 430.151 333.584 435.313C336.838 440.45 338.438 443.208 338.385 443.586C338.346 443.87 338.108 444.328 337.673 444.961C337.044 445.876 336.369 446.707 335.648 447.454C335.121 447.92 334.558 447.948 333.96 447.537C331.579 445.952 327.844 443.436 322.755 439.988C317.63 436.517 312.588 433.077 307.629 429.667C305.905 428.482 304.727 427.672 304.094 427.237C303.45 426.742 303.075 426.459 302.97 426.386C302.525 425.977 302.288 425.607 302.257 425.275C302.191 424.919 302.292 424.47 302.561 423.929L303.378 422.627C303.693 422.17 304.151 421.578 304.754 420.853C304.861 420.771 305.057 420.751 305.34 420.79C305.624 420.83 305.854 420.91 306.03 421.031L306.082 421.067L324.882 434.069C325.409 434.432 325.709 434.561 325.782 434.455C325.855 434.35 325.712 433.992 325.353 433.383ZM322.882 396.179C328.193 399.831 331.541 402.081 332.926 402.929C333.102 403.05 333.347 402.882 333.662 402.425C334.049 401.862 334.314 401.138 334.456 400.252C334.624 399.331 334.525 398.382 334.16 397.406C333.76 396.406 333.014 395.531 331.924 394.781C331.045 394.177 330.259 393.662 329.566 393.238C328.933 392.803 328.165 392.3 327.261 391.731C326.382 391.126 325.937 390.794 325.926 390.735C325.915 390.676 326.236 390.171 326.889 389.221L328.485 386.9C328.944 386.232 329.28 385.893 329.494 385.884C329.696 385.816 330.143 385.994 330.836 386.419L332.682 387.688C335.25 389.453 336.768 390.523 337.236 390.897C337.997 391.523 338.73 392.416 339.436 393.574C340.106 394.709 340.385 395.885 340.273 397.103C340.234 397.386 340.284 397.576 340.425 397.673C340.531 397.746 340.726 397.725 341.012 397.61C342.287 397.037 343.782 396.821 345.497 396.964C347.033 397.14 348.574 397.837 350.12 399.055L356.715 403.589C360.303 406.055 362.225 407.403 362.482 407.632C362.588 407.704 362.687 407.824 362.779 407.991C362.836 408.134 362.841 408.241 362.792 408.311C362.658 408.581 362.216 409.262 361.467 410.352C360.427 411.865 359.859 412.691 359.762 412.832C359.654 412.913 359.471 412.917 359.211 412.842C358.976 412.732 358.371 412.368 357.398 411.75C355.955 410.759 354.677 409.906 353.562 409.191C349.025 406.072 346.24 404.209 345.206 403.602C344.29 403.127 343.357 402.978 342.407 403.154C341.422 403.305 340.588 403.69 339.904 404.308C339.425 404.703 339.076 405.06 338.859 405.376C338.351 406.115 338.572 406.811 339.522 407.463L354.872 418.25C355.329 418.564 355.411 419.009 355.119 419.585C354.754 420.267 354.148 421.223 353.302 422.454C352.673 423.369 352.234 423.895 351.983 424.034C351.84 424.091 351.628 424.023 351.347 423.829L319.373 401.848C319.022 401.606 318.8 401.401 318.707 401.234C318.639 401.032 318.714 400.773 318.932 400.456C319.657 399.401 320.541 398.04 321.583 396.374C321.776 396.092 321.962 395.935 322.14 395.902C322.283 395.845 322.478 395.901 322.724 396.07L322.882 396.179ZM355.603 394.018L338.166 373.949C338.238 373.843 338.843 372.964 339.979 371.311C341.105 369.598 341.832 368.804 342.162 368.927C343.14 369.237 346.896 370.705 353.43 373.332C359.963 375.959 364.107 377.617 365.862 378.305L376.704 382.651C377.199 382.836 377.569 383.013 377.815 383.182C378.167 383.424 378.376 383.723 378.442 384.079C378.473 384.411 378.407 384.884 378.244 385.497C378.007 386.37 377.722 387.236 377.39 388.095C377.267 388.425 377.169 388.643 377.096 388.748C376.927 388.994 376.706 389.127 376.434 389.147C376.196 389.191 375.877 389.127 375.477 388.956L369.298 386.417C368.838 386.256 368.463 386.387 368.173 386.809L364.2 392.702C364.103 392.843 364.077 393.032 364.121 393.269C364.129 393.482 364.18 393.673 364.272 393.84C364.527 394.222 365.138 394.953 366.106 396.033C367.038 397.088 367.585 397.723 367.748 397.939C368.13 398.512 368.348 399.025 368.401 399.475C368.443 399.867 368.318 400.273 368.028 400.695C367.931 400.836 367.703 401.093 367.342 401.467C366.922 401.852 366.574 402.208 366.297 402.535C366.02 402.863 365.791 403.12 365.611 403.307C365.07 403.868 364.554 403.979 364.061 403.64C363.885 403.519 363.774 403.417 363.728 403.333L355.603 394.018ZM350.426 378.493C350.377 378.563 350.516 378.814 350.841 379.245C351.272 379.748 352.666 381.224 355.023 383.673C356.889 385.63 358.248 387.082 359.098 388.029C359.448 388.425 359.756 388.429 360.022 388.043C360.602 387.198 361.317 386.084 362.165 384.699C362.407 384.347 362.529 384.094 362.531 383.94C362.557 383.751 362.465 383.584 362.254 383.439C362.008 383.27 361.802 383.155 361.637 383.093C361.308 382.97 359.696 382.225 356.803 380.857L353.68 379.41C351.68 378.552 350.595 378.247 350.426 378.493ZM350.036 354.988C350.568 354.214 350.882 353.757 350.979 353.616C351.317 353.124 351.821 353.107 352.489 353.567L369.567 365.23L373.26 367.769C373.577 367.987 373.787 368.209 373.89 368.435C374.018 368.627 374.08 368.799 374.078 368.953C374.065 369.048 374.046 369.112 374.022 369.148L371.229 373.21C371.084 373.421 370.87 373.507 370.586 373.467C370.267 373.404 369.967 373.275 369.686 373.082C358.149 365.15 351.249 360.381 348.987 358.774C348.284 358.29 348.186 357.679 348.694 356.94C349.045 356.353 349.493 355.702 350.036 354.988ZM379.008 379.413C378.304 378.929 377.782 378.596 377.442 378.414C376.89 378.086 376.538 377.844 376.386 377.688C376.259 377.497 376.238 377.301 376.324 377.101C376.409 376.901 376.64 376.49 377.016 375.868C377.186 375.622 377.493 375.212 377.94 374.638C378.351 374.04 378.69 373.471 378.958 372.93C379.165 372.554 379.358 372.35 379.536 372.317C379.738 372.248 380.044 372.33 380.456 372.561C381.089 372.996 381.576 373.305 381.916 373.487L383.483 374.486C384.01 374.849 384.354 375.215 384.515 375.584C384.64 375.93 384.594 376.26 384.376 376.577C384.231 376.788 384.019 377.134 383.74 377.616C383.485 378.062 383.152 378.584 382.741 379.182L382.071 380.043C381.566 380.628 381.002 380.732 380.38 380.356L379.008 379.413Z" fill="#18568F"/>
<path d="M380.757 358.608C404.018 374.917 432.132 382.838 460.485 381.071C488.839 379.304 515.75 367.955 536.806 348.884C557.862 329.813 571.813 304.154 576.37 276.113C580.927 248.073 575.817 219.314 561.883 194.557C547.95 169.8 526.022 150.516 499.687 139.862C473.352 129.207 444.178 127.818 416.95 135.922C389.722 144.026 366.052 161.139 349.829 184.46C333.606 207.781 325.795 235.926 327.667 264.272L345.315 263.104C343.708 238.76 350.423 214.593 364.356 194.565C378.288 174.537 398.61 159.835 421.994 152.875C445.378 145.915 470.437 147.111 493.054 156.261C515.67 165.412 534.506 181.975 546.472 203.237C558.439 224.499 562.822 249.194 558.909 273.276C554.995 297.358 543.014 319.394 524.93 335.772C506.847 352.151 483.734 361.897 459.383 363.414C435.033 364.932 410.89 358.13 390.913 344.123L390.591 344.257C384.765 346.677 380.911 352.301 380.757 358.608Z" fill="#F5F3E6"/>
<path d="M431.98 379.59C459.998 384.285 488.782 379.321 513.607 365.51C538.432 351.699 557.828 329.862 568.613 303.58C579.397 277.298 580.931 248.132 572.961 220.864C564.992 193.596 547.99 169.845 524.75 153.507C501.509 137.17 473.412 129.215 445.056 130.947C416.701 132.679 389.774 143.995 368.695 163.04C347.615 182.084 333.629 207.726 329.037 235.761C324.445 263.796 329.522 292.56 343.425 317.334L358.848 308.676C346.908 287.4 342.557 262.698 346.5 238.621C350.443 214.544 362.448 192.521 380.551 176.166C398.655 159.81 421.784 150.092 446.136 148.605C470.488 147.117 494.623 153.949 514.582 167.98C534.541 182.012 549.137 202.408 555.982 225.826C562.826 249.244 561.508 274.293 552.246 296.864C542.984 319.436 526.325 338.189 505.005 350.05C483.684 361.911 458.966 366.175 434.904 362.143L434.671 362.402C430.456 367.096 429.401 373.832 431.98 379.59Z" fill="#F5F3E6"/>
</svg>
