<svg width="50" height="50" viewBox="0 0 50 50" fill="none" xmlns="http://www.w3.org/2000/svg">
<circle cx="25" cy="25" r="25" fill="#18568F"/>
<path d="M35.8607 34.011V30.9958H18.2092L19.4374 28.2821H30.4887C31.4096 28.2821 32.1861 28.1203 32.7911 27.3776C33.405 26.6238 38.6237 17.4274 38.9307 16.8243C39.2377 16.2213 38.4702 14.8645 37.7028 14.8645C37.0888 14.8645 22.6095 14.8645 15.2931 14.7137L13.9117 12H9V15.166H12.0698L17.2885 26.1715L14.6789 30.5435C14.6278 31.6994 15.2622 34.011 18.2092 34.011H35.8607Z" fill="#F5F3E6"/>
<ellipse cx="18.0565" cy="38.3822" rx="3.3768" ry="3.31673" fill="#F5F3E6"/>
<ellipse cx="33.0995" cy="38.6832" rx="3.3768" ry="3.31673" fill="#F5F3E6"/>
</svg>
