<svg width="110" height="118" viewBox="0 0 110 118" fill="none" xmlns="http://www.w3.org/2000/svg">
<rect x="36.0498" y="5.14954" width="36.4794" height="36.4794" fill="#18568F"/>
<rect x="54.5049" y="41.6289" width="36.4794" height="36.4794" fill="#EBA0A5"/>
<rect x="72.9585" y="78.1082" width="36.4794" height="36.4794" fill="#18568F"/>
<rect y="78.1082" width="36.4794" height="36.4794" fill="#EBA0A5"/>
<rect x="18.0256" y="41.6289" width="36.4794" height="36.4794" fill="#18568F"/>
<rect x="36.4792" y="78.1082" width="36.4794" height="36.4794" fill="#F5F3E6"/>
<path d="M46.4704 35V9.93652H62.3325V14.7432H51.4487V19.7559H54.8134C56.553 19.7559 58.0636 20.0764 59.3454 20.7172C60.6272 21.3353 61.6229 22.2165 62.3325 23.3609C63.0649 24.4825 63.4311 25.8101 63.4311 27.3436C63.4311 28.8772 63.0649 30.2162 62.3325 31.3606C61.6229 32.5051 60.6272 33.3978 59.3454 34.0387C58.0636 34.6796 56.5644 35 54.8477 35H46.4704ZM51.4487 30.7083H54.8477C55.9006 30.7083 56.7361 30.4108 57.3541 29.8156C57.9721 29.2205 58.2811 28.4194 58.2811 27.4123C58.2811 26.3823 57.9721 25.5697 57.3541 24.9746C56.7361 24.3566 55.9006 24.0476 54.8477 24.0476H51.4487V30.7083Z" fill="#F5F3E6"/>
<path d="M26.5061 74.999V65.7976H27.5704C27.8222 65.3856 28.0854 64.8248 28.3601 64.1152C28.6576 63.3828 28.9094 62.5473 29.1154 61.6089C29.3214 60.6475 29.4244 59.6175 29.4244 58.5189L29.6304 45.1288H43.5355V65.7976H45.5955V74.999H40.7888V70.1923H31.3128V74.999H26.5061ZM32.6174 65.7976H38.7288V49.5235H34.3685L34.2311 58.4845C34.2082 60.0868 34.0137 61.5517 33.6474 62.8792C33.2812 64.1839 32.9379 65.1567 32.6174 65.7976Z" fill="#EBA0A5"/>
<path d="M10.1284 107.959V103.118L18.0938 95.4269C19.0323 94.5113 19.7304 93.6644 20.1882 92.8862C20.6688 92.108 20.9092 91.2611 20.9092 90.3455C20.9092 89.3384 20.6345 88.5602 20.0852 88.0108C19.5587 87.4615 18.8263 87.1868 17.8878 87.1868C16.8578 87.1868 16.0453 87.4958 15.4501 88.1138C14.8779 88.7089 14.5918 89.5444 14.5918 90.6202H9.44177C9.44177 88.9722 9.78511 87.5531 10.4718 86.3628C11.1813 85.1497 12.177 84.2113 13.4588 83.5475C14.7406 82.8837 16.2513 82.5518 17.9908 82.5518C19.6159 82.5518 21.0236 82.8608 22.2138 83.4788C23.427 84.0739 24.3654 84.9094 25.0292 85.9852C25.7159 87.0609 26.0592 88.3313 26.0592 89.7962C26.0592 91.4213 25.6586 92.9778 24.8575 94.4655C24.0564 95.9533 22.7746 97.5098 21.0122 99.1349L16.4801 103.324H26.3339V107.959H10.1284Z" fill="#F5F3E6"/>
<path d="M54.8995 108.302C52.4046 108.302 50.4247 107.684 48.9598 106.448C47.4949 105.212 46.7396 103.541 46.6938 101.435H51.8438C51.8896 102.191 52.1757 102.786 52.7022 103.221C53.2286 103.633 53.9611 103.839 54.8995 103.839C55.9066 103.839 56.6734 103.587 57.1999 103.083C57.7492 102.557 58.0239 101.836 58.0239 100.92V98.4826C58.0239 97.5441 57.7606 96.8346 57.2342 96.3539C56.7077 95.8503 55.9295 95.5985 54.8995 95.5985C54.2815 95.5985 53.7436 95.6901 53.2858 95.8732C52.8509 96.0334 52.5076 96.2852 52.2558 96.6286H47.2775L47.4491 82.8951H62.2469V87.5302H52.2902L52.2215 94.0535H53.2858L52.1872 94.9119C52.1872 93.859 52.5877 93.035 53.3888 92.4399C54.2128 91.8219 55.323 91.5129 56.7192 91.5129C58.7563 91.5129 60.3357 92.1309 61.4572 93.3669C62.6017 94.58 63.1739 96.2852 63.1739 98.4826V100.92C63.1739 103.209 62.4414 105.017 60.9766 106.345C59.5117 107.65 57.486 108.302 54.8995 108.302Z" fill="#18568F"/>
<path d="M85.7137 107.959L94.8121 87.7018H87.8081V91.3069H82.658V82.8951H99.9965V87.7018L91.2071 107.959H85.7137Z" fill="#F5F3E6"/>
<path d="M71.2415 73.1097C69.5019 73.1097 67.9798 72.8236 66.6751 72.2514C65.3704 71.6791 64.3404 70.8666 63.5851 69.8137C62.8298 68.7608 62.4063 67.5133 62.3147 66.0713H67.4648C67.5563 66.8724 67.934 67.5019 68.5978 67.9597C69.2845 68.4174 70.1657 68.6463 71.2415 68.6463C72.363 68.6463 73.2671 68.3488 73.9538 67.7537C74.6634 67.1357 75.0182 66.3689 75.0182 65.4533C75.0182 64.492 74.6863 63.7252 74.0225 63.153C73.3587 62.5807 72.4317 62.2946 71.2415 62.2946H67.6364V57.6596H71.2415C72.3859 57.6596 73.2786 57.362 73.9195 56.7669C74.5604 56.1489 74.8808 55.4165 74.8808 54.5696C74.8808 53.6998 74.5489 53.0246 73.8851 52.5439C73.2443 52.0632 72.363 51.8229 71.2415 51.8229C70.303 51.8229 69.5133 52.0518 68.8725 52.5096C68.2316 52.9674 67.831 53.5968 67.6708 54.3979H62.5207C62.6581 52.9559 63.1159 51.7085 63.8941 50.6556C64.6723 49.6027 65.7023 48.7901 66.9841 48.2179C68.2888 47.6457 69.7766 47.3595 71.4475 47.3595C73.9653 47.3595 75.9681 47.8974 77.4558 48.9732C78.9665 50.049 79.7219 51.5253 79.7219 53.4022C79.7219 54.6154 79.4472 55.6911 78.8978 56.6296C78.3714 57.5452 77.6046 58.2662 76.5975 58.7926C75.5904 59.2962 74.3773 59.5479 72.9581 59.5479V59.0329C74.4002 59.0101 75.659 59.2618 76.7348 59.7883C77.8335 60.3147 78.6804 61.0701 79.2755 62.0543C79.8706 63.0156 80.1682 64.1372 80.1682 65.419C80.1682 66.9525 79.802 68.303 79.0695 69.4703C78.3371 70.6148 77.2956 71.5075 75.9452 72.1484C74.6176 72.7892 73.0497 73.1097 71.2415 73.1097Z" fill="#18568F"/>
</svg>
