<svg width="975" height="1014" viewBox="0 0 975 1014" fill="none" xmlns="http://www.w3.org/2000/svg">
<path d="M775.079 184.318C795.732 177.768 814.33 198.87 805.237 218.536L746.954 344.589C742.395 354.45 744.748 366.128 752.77 373.454L855.319 467.102C871.318 481.712 862.342 508.371 840.765 510.329L702.458 522.881C691.639 523.863 682.701 531.739 680.368 542.35L650.541 677.984C645.888 699.145 618.313 704.701 605.828 686.993L525.805 573.492C519.545 564.613 508.255 560.811 497.899 564.096L365.523 606.082C344.871 612.632 326.272 591.53 335.365 571.864L393.648 445.811C398.207 435.95 395.854 424.272 387.832 416.946L285.283 323.298C269.284 308.688 278.26 282.029 299.837 280.071L438.144 267.519C448.964 266.538 457.901 258.661 460.234 248.05L490.061 112.416C494.715 91.2555 522.289 85.6997 534.774 103.407L614.797 216.909C621.057 225.788 632.347 229.589 642.703 226.304L775.079 184.318Z" fill="#F5F3E6"/>
<path d="M679.821 268.688C693.589 264.321 705.989 278.39 699.927 291.5L669.884 356.476C666.844 363.05 668.413 370.835 673.761 375.719L726.621 423.991C737.287 433.731 731.303 451.504 716.918 452.809L645.626 459.279C638.413 459.934 632.455 465.185 630.9 472.258L615.525 542.173C612.423 556.28 594.04 559.984 585.717 548.179L544.468 489.673C540.294 483.754 532.768 481.219 525.864 483.409L457.629 505.051C443.861 509.418 431.461 495.35 437.523 482.239L467.566 417.264C470.606 410.69 469.037 402.905 463.689 398.021L410.829 349.749C400.163 340.008 406.147 322.236 420.532 320.931L491.824 314.461C499.037 313.806 504.995 308.555 506.55 301.481L521.925 231.567C525.027 217.46 543.41 213.756 551.733 225.561L592.983 284.067C597.156 289.986 604.683 292.52 611.586 290.331L679.821 268.688Z" fill="#18568F"/>
<rect x="340.786" y="809.624" width="772.648" height="193.162" rx="68.9864" transform="rotate(-55.4914 340.786 809.624)" fill="#EBA0A5"/>
<path d="M513.76 794.814C514.769 795.619 515.091 796.287 514.726 796.818L511.088 802.353C510.046 803.869 509.278 804.904 508.785 805.459C508.189 806.165 507.672 806.591 507.236 806.738C506.777 806.757 506.18 806.57 505.446 806.176C504.688 805.655 504.157 805.291 503.854 805.082L491.575 796.64L447.006 765.999L438.138 759.902C438.062 759.85 437.835 759.694 437.456 759.433C437.077 759.173 436.852 758.851 436.781 758.467C436.733 758.211 437.465 756.984 438.977 754.786L444.015 747.701C444.247 747.526 444.555 747.403 444.938 747.332C445.246 747.209 445.438 747.173 445.514 747.225C448.953 749.367 453.894 752.652 460.337 757.081L469.582 763.605C469.909 763.941 470.276 764.137 470.683 764.194C471.015 764.199 471.311 764.012 471.572 763.633L471.728 763.406C472.642 761.913 473.476 760.701 474.229 759.767C474.907 758.782 475.454 757.986 475.871 757.38L477.903 754.424C478.945 752.908 479.715 751.707 480.212 750.821C480.265 750.745 480.371 750.428 480.532 749.869C479.144 748.803 477.237 747.436 474.812 745.769C472.386 744.101 470.025 742.422 467.727 740.73L456.663 732.957C456.057 732.54 455.718 732.139 455.647 731.756C455.628 731.296 455.827 730.763 456.244 730.157C457.443 728.413 458.317 727.061 458.866 726.099C460.794 723.295 462.137 721.26 462.895 719.995C463.525 718.754 464.371 718.498 465.432 719.228L465.773 719.462C468.322 721.438 484.249 732.611 513.554 752.981L533.18 766.809C534.213 767.743 534.815 768.491 534.985 769.055C535.156 769.619 534.914 770.457 534.26 771.57C532.872 774.076 531.136 776.845 529.052 779.877C528.531 780.635 527.811 781.033 526.891 781.071C526.025 781.033 525.136 780.702 524.227 780.076L510.093 770.192C501.452 764.251 496.097 760.513 494.026 758.979C493.572 758.666 493.152 758.545 492.769 758.616C492.437 758.611 492.051 758.848 491.61 759.327C487.963 764.633 485.189 768.586 483.289 771.187C482.664 772.096 482.844 772.89 483.829 773.567L508.039 790.714C508.494 791.026 509.29 791.574 510.427 792.355C511.616 793.061 512.727 793.881 513.76 794.814ZM497.76 693.881C494.159 699.442 492.215 702.515 491.926 703.097C491.845 703.377 491.878 703.734 492.025 704.17C492.096 704.554 492.208 704.798 492.359 704.902C496.405 707.46 499.465 709.341 501.54 710.544C501.692 710.649 501.959 710.665 502.343 710.594C502.779 710.447 503.049 710.298 503.153 710.146L511.915 696.915C512.801 695.627 513.691 694.899 514.587 694.734C515.406 694.516 516.411 694.76 517.6 695.466C518.206 695.882 518.926 696.377 519.76 696.951C520.646 697.448 521.593 698.099 522.602 698.905C523.962 700.174 523.962 701.96 522.602 704.263C521.844 705.528 521.127 706.653 520.449 707.638C519.748 708.496 519.163 709.265 518.694 709.947L516.662 712.904C515.672 714.344 514.98 715.431 514.587 716.165C514.037 717.127 513.836 717.826 513.983 718.261C514.106 718.569 514.622 719.036 515.532 719.661C517.63 720.993 522.015 723.951 528.685 728.537C534.521 732.549 537.693 734.674 538.2 734.911C538.479 734.991 538.811 734.996 539.195 734.925C539.63 734.778 539.927 734.591 540.083 734.364L545.711 726.178L554.074 714.012C554.231 713.785 554.465 713.444 554.778 712.989C555.091 712.534 555.453 712.169 555.865 711.895C556.277 711.62 556.915 711.667 557.777 712.037C558.487 712.302 559.676 713.008 561.344 714.154L566.382 717.785C566.988 718.202 567.401 718.821 567.618 719.64C567.813 720.332 567.713 721.045 567.32 721.779L560.989 730.988L545.668 753.273C545.147 754.031 544.439 754.492 543.543 754.658C542.7 754.748 541.874 754.571 541.063 754.125C536.715 751.359 522.64 741.794 498.84 725.431C490.426 719.647 484.412 715.568 480.798 713.195C477.16 710.694 474.961 709.182 474.204 708.661C472.839 707.723 472.574 706.648 473.408 705.435L493.894 675.15C494.728 673.937 495.656 673.236 496.68 673.046C497.755 672.781 498.823 673.013 499.884 673.743L500.83 674.56C501.559 675.285 502.758 676.22 504.425 677.367C505.235 677.812 505.735 678.546 505.925 679.57C506.09 680.465 505.913 681.292 505.392 682.049C503.904 684.376 501.36 688.319 497.76 693.881ZM543.381 661.618C544.84 663.068 545.771 663.987 546.174 664.375L576.751 699.294C578.082 700.767 578.935 701.8 579.309 702.392C579.607 702.932 579.65 703.52 579.437 704.154C579.148 704.737 578.392 705.836 577.17 707.452C575.763 709.498 574.188 710.815 572.445 711.403C571.137 711.843 570.066 711.777 569.233 711.204C568.854 710.943 568.577 710.697 568.401 710.465L561.587 702.598C531.836 668.75 516.26 650.898 514.858 649.041C514.583 648.628 514.387 648.103 514.268 647.463C514.15 646.823 514.157 646.326 514.29 645.971C514.74 644.829 516.528 641.984 519.655 637.437C519.811 637.209 520.081 637.06 520.465 636.989C520.825 636.79 521.107 636.705 521.31 636.733C524.053 637.614 535.363 641.539 555.241 648.508C575.119 655.476 589.309 660.488 597.813 663.544C598.727 663.838 600.184 664.56 602.183 665.711C602.486 665.92 602.645 666.419 602.659 667.211C602.55 667.694 602.306 668.698 601.927 670.223C601.6 671.673 601.212 672.969 600.762 674.11C600.392 674.973 600.129 675.517 599.973 675.745C599.296 676.73 598.355 677.367 597.152 677.656C595.949 677.945 594.637 677.824 593.215 677.294C587.81 675.252 580.754 672.689 572.047 669.605C563.34 666.521 556.118 663.956 550.381 661.909L542.806 659.046C542.147 658.705 541.74 658.648 541.583 658.875C541.375 659.178 541.974 660.093 543.381 661.618ZM559.763 628.049C556.049 625.495 553.789 623.83 552.984 623.053C550.07 619.822 547.766 616.843 546.07 614.114C544.374 611.385 543.481 607.813 543.391 603.398C543.277 598.855 545.096 593.855 548.848 588.397C551.975 583.85 555.599 581.095 559.72 580.133C563.818 579.044 567.646 578.996 571.204 579.991C574.686 580.934 577.488 582.135 579.61 583.594C584.74 587.009 591.323 591.479 599.357 597.003C607.444 602.451 614.026 606.92 619.105 610.412C621.227 611.871 623.385 614.415 625.578 618.044C627.772 621.672 629.065 625.799 629.458 630.422C629.851 635.046 628.537 639.556 625.514 643.952C619.73 652.365 613.555 655.989 606.989 654.824C600.423 653.659 594.601 651.33 589.523 647.839L582.85 643.419C569.733 634.735 562.037 629.612 559.763 628.049ZM580.228 601.934C576.438 599.329 574.404 597.986 574.124 597.905C572.504 597.015 570.995 596.368 569.598 595.965C568.252 595.487 566.8 595.326 565.242 595.482C562.712 595.752 560.822 596.797 559.571 598.616C558.789 599.753 558.363 601.022 558.292 602.425C558.197 603.699 558.498 604.966 559.194 606.226C560.36 608.59 561.888 610.589 563.778 612.224C564.659 613.053 569.799 616.698 579.198 623.16L593.637 633.087L598.753 636.604C601.027 638.168 603.045 638.885 604.808 638.757C606.622 638.554 608.512 637.509 610.478 635.624C610.71 635.448 611.009 635.095 611.374 634.565C612.468 632.973 612.979 631.092 612.908 628.923C612.762 626.701 611.982 624.993 610.571 623.799C608.984 622.373 604.919 619.356 598.377 614.746C591.811 610.009 585.761 605.738 580.228 601.934ZM577.727 553.211L581.714 547.412C581.87 547.185 587.349 548.551 598.15 551.512C608.875 554.421 616.55 556.572 621.173 557.964C622.315 558.414 622.99 558.488 623.198 558.185C623.355 557.957 623.17 557.495 622.644 556.799L597.88 524.872C597.553 524.536 597.432 524.062 597.518 523.451C597.655 522.764 597.776 522.345 597.88 522.193L604.602 512.415C604.654 512.339 604.796 512.214 605.029 512.039C605.261 511.863 605.569 511.74 605.952 511.669C606.26 511.546 606.566 511.589 606.869 511.797C617.528 517.562 632.692 525.867 652.361 536.711C672.083 547.478 682.107 553.031 682.434 553.367C682.964 553.732 682.547 555.231 681.183 557.865C679.947 560.475 679.224 561.932 679.016 562.235C678.177 563.78 677.31 564.635 676.415 564.8C675.595 565.018 674.376 564.682 672.755 563.791C669.87 562.143 663.02 558.55 652.205 553.012C641.314 547.422 633.879 543.705 629.899 541.862C629.317 541.573 628.947 541.543 628.791 541.77C628.687 541.922 628.86 542.319 629.31 542.964C632.616 547.246 636.3 551.955 640.359 557.09C644.471 562.15 647.506 565.854 649.462 568.204C649.96 569.104 650.168 569.694 650.087 569.974C649.581 571.523 648.832 573.017 647.842 574.457C647.008 575.67 646.255 576.603 645.582 577.257C644.985 577.963 644.303 578.387 643.536 578.529C642.745 578.543 641.828 578.415 640.786 578.145C638.119 577.316 635.056 576.494 631.598 575.68C628.116 574.737 625.676 574.064 624.279 573.662C617.618 571.985 613.411 570.878 611.658 570.343C611.507 570.239 611.303 570.21 611.047 570.258C610.768 570.177 610.602 570.175 610.55 570.251C610.394 570.478 610.884 570.983 612.021 571.764C616.512 575.298 622.452 580.052 629.843 586.026C637.157 591.948 643.311 596.96 648.304 601.062C649.161 601.763 649.277 602.569 648.652 603.478C648.287 604.009 647.686 605.046 646.847 606.591C645.985 608.007 645.151 609.22 644.346 610.229C642.531 612.218 640.639 612.536 638.668 611.181C638.213 610.868 637.86 610.57 637.609 610.286C635.444 608.239 614.79 591.36 575.645 559.649C574.584 558.919 574.418 558.024 575.148 556.962L577.727 553.211ZM665.217 526.292L627.64 483.045C627.797 482.818 629.099 480.923 631.549 477.361C633.974 473.67 635.542 471.958 636.253 472.223C638.361 472.891 646.455 476.056 660.534 481.717C674.613 487.378 683.543 490.95 687.323 492.432L710.688 501.798C711.754 502.196 712.552 502.577 713.082 502.942C713.84 503.463 714.29 504.108 714.433 504.875C714.499 505.59 714.357 506.609 714.006 507.931C713.495 509.811 712.881 511.678 712.166 513.53C711.9 514.241 711.69 514.71 711.533 514.937C711.169 515.468 710.692 515.754 710.105 515.797C709.593 515.892 708.906 515.754 708.044 515.385L694.728 509.913C693.738 509.567 692.93 509.849 692.305 510.759L683.742 523.457C683.533 523.76 683.477 524.168 683.571 524.679C683.59 525.139 683.699 525.549 683.898 525.909C684.448 526.733 685.765 528.308 687.849 530.634C689.858 532.908 691.037 534.277 691.388 534.741C692.212 535.978 692.681 537.082 692.795 538.053C692.885 538.896 692.617 539.772 691.992 540.682C691.783 540.985 691.291 541.539 690.514 542.345C689.609 543.174 688.858 543.941 688.261 544.647C687.664 545.353 687.172 545.907 686.783 546.31C685.618 547.518 684.505 547.757 683.443 547.028C683.064 546.767 682.825 546.547 682.726 546.367L665.217 526.292ZM654.06 492.837C653.956 492.989 654.255 493.529 654.956 494.458C655.884 495.542 658.888 498.724 663.966 504.001C667.988 508.217 670.916 511.346 672.749 513.388C673.502 514.241 674.165 514.25 674.739 513.416C675.989 511.597 677.529 509.195 679.358 506.211C679.879 505.453 680.142 504.908 680.146 504.577C680.203 504.169 680.004 503.809 679.549 503.496C679.019 503.132 678.576 502.883 678.221 502.75C677.51 502.485 674.038 500.879 667.803 497.932L661.074 494.813C656.763 492.965 654.425 492.307 654.06 492.837ZM637.373 423.59C638.33 422.685 639.062 422.351 639.569 422.588C641.871 423.948 643.93 424.526 645.744 424.322C647.559 424.118 649.326 422.766 651.045 420.264C652.348 418.369 652.545 416.216 651.635 413.805C650.702 411.266 649.328 409.205 647.514 407.623C647.059 407.31 647.274 406.51 648.16 405.221C649.202 403.705 650.588 402.258 652.317 400.879C654.098 399.425 655.19 398.892 655.593 399.28C657.606 401.223 659.376 403.276 660.901 405.441C662.427 407.606 663.291 410.489 663.495 414.089C663.699 417.69 662.341 421.612 659.423 425.857C654.837 432.527 650.361 436.035 645.993 436.381C641.625 436.726 637.736 435.727 634.325 433.382L632.584 432.018C632.205 431.757 632.226 431.158 632.648 430.22C632.994 429.23 633.584 428.128 634.417 426.915C635.407 425.475 636.393 424.367 637.373 423.59ZM699.799 466.005C699.027 464.693 698.241 463.483 697.44 462.374C696.118 460.238 691.784 453.797 684.436 443.053C677.065 432.181 671.93 424.632 669.03 420.406C668.704 420.07 669.4 418.651 671.12 416.15L672.761 413.762C673.126 413.232 673.555 412.689 674.047 412.135C674.516 411.453 674.895 410.821 675.184 410.238C675.577 409.504 675.966 409.101 676.35 409.03C676.785 408.883 677.344 409.044 678.027 409.513L697.014 422.567L747.836 457.507C748.366 457.872 747.615 459.532 745.583 462.488L742.577 466.617C741.72 467.701 741.011 468.163 740.452 468.002C739.893 467.841 738.565 467.095 736.466 465.764L700.268 441.213C700.117 441.109 699.901 441.016 699.622 440.936C699.266 440.803 699.037 440.812 698.932 440.964C698.828 441.116 699.413 442.132 700.687 444.012C704.833 450.323 710.449 459.039 717.536 470.162C724.547 481.234 727.996 487.176 727.882 487.991C727.797 488.602 727.285 489.59 726.347 490.954C724.992 492.925 723.538 494.716 721.984 496.327C720.847 497.331 719.634 497.39 718.346 496.504C713.215 493.089 705.167 487.667 694.2 480.239C683.157 472.758 672.292 465.345 661.605 457.997C657.891 455.444 655.351 453.698 653.987 452.76C652.599 451.694 651.791 451.083 651.564 450.927C650.607 450.045 650.095 449.247 650.029 448.532C649.887 447.764 650.105 446.798 650.683 445.633L652.445 442.826C653.123 441.84 654.11 440.566 655.408 439.003C655.64 438.827 656.062 438.782 656.673 438.868C657.284 438.953 657.779 439.126 658.158 439.386L658.272 439.465L698.783 467.483C699.92 468.265 700.567 468.542 700.723 468.315C700.879 468.087 700.571 467.318 699.799 466.005ZM694.474 385.833C705.919 393.702 713.134 398.551 716.119 400.379C716.498 400.64 717.026 400.277 717.703 399.292C718.537 398.079 719.108 396.518 719.416 394.609C719.776 392.624 719.563 390.58 718.776 388.477C717.914 386.321 716.308 384.436 713.958 382.82C712.063 381.518 710.37 380.409 708.878 379.495C707.513 378.557 705.858 377.474 703.911 376.247C702.016 374.945 701.056 374.229 701.033 374.101C701.009 373.973 701.701 372.886 703.108 370.84L706.547 365.837C707.537 364.397 708.262 363.667 708.721 363.649C709.157 363.502 710.121 363.885 711.613 364.8L715.593 367.535C721.126 371.34 724.397 373.644 725.406 374.45C727.045 375.8 728.625 377.723 730.146 380.22C731.591 382.664 732.192 385.199 731.951 387.823C731.865 388.434 731.974 388.844 732.278 389.052C732.505 389.209 732.927 389.164 733.542 388.917C736.29 387.681 739.511 387.217 743.207 387.525C746.518 387.904 749.839 389.405 753.169 392.03L767.381 401.8C775.112 407.116 779.255 410.02 779.809 410.512C780.037 410.669 780.25 410.927 780.449 411.287C780.572 411.595 780.581 411.825 780.477 411.976C780.188 412.559 779.236 414.025 777.621 416.375C775.38 419.634 774.155 421.415 773.947 421.718C773.715 421.894 773.319 421.901 772.76 421.74C772.253 421.503 770.951 420.719 768.852 419.388C765.744 417.251 762.99 415.413 760.588 413.873C750.81 407.151 744.808 403.136 742.581 401.829C740.606 400.806 738.595 400.483 736.548 400.862C734.426 401.189 732.628 402.018 731.155 403.35C730.122 404.202 729.371 404.97 728.902 405.652C727.808 407.244 728.284 408.743 730.331 410.15L763.409 433.394C764.394 434.071 764.572 435.03 763.942 436.271C763.155 437.74 761.85 439.801 760.026 442.454C758.671 444.424 757.724 445.559 757.184 445.857C756.876 445.981 756.419 445.834 755.812 445.417L686.913 398.048C686.155 397.527 685.677 397.087 685.478 396.727C685.331 396.291 685.492 395.732 685.961 395.05C687.524 392.776 689.429 389.843 691.674 386.253C692.091 385.646 692.491 385.307 692.875 385.236C693.183 385.113 693.602 385.234 694.133 385.599L694.474 385.833ZM764.985 381.175L727.408 337.929C727.565 337.701 728.868 335.806 731.317 332.244C733.742 328.553 735.31 326.841 736.021 327.106C738.129 327.774 746.223 330.939 760.302 336.6C774.381 342.261 783.311 345.833 787.091 347.316L810.456 356.681C811.522 357.079 812.32 357.461 812.851 357.825C813.608 358.346 814.059 358.991 814.201 359.758C814.267 360.473 814.125 361.492 813.774 362.814C813.263 364.694 812.649 366.561 811.934 368.413C811.669 369.124 811.458 369.593 811.301 369.82C810.937 370.351 810.461 370.637 809.873 370.68C809.361 370.775 808.675 370.637 807.812 370.268L794.496 364.796C793.506 364.45 792.698 364.732 792.073 365.642L783.51 378.34C783.302 378.643 783.245 379.051 783.339 379.562C783.358 380.022 783.467 380.432 783.666 380.792C784.216 381.616 785.533 383.191 787.617 385.517C789.626 387.791 790.805 389.16 791.156 389.624C791.98 390.861 792.449 391.965 792.563 392.936C792.653 393.779 792.385 394.655 791.76 395.565C791.552 395.868 791.059 396.422 790.282 397.228C789.377 398.057 788.626 398.824 788.029 399.53C787.432 400.236 786.94 400.79 786.551 401.193C785.386 402.401 784.273 402.64 783.212 401.911C782.833 401.65 782.593 401.43 782.494 401.25L764.985 381.175ZM753.828 347.721C753.724 347.872 754.023 348.412 754.724 349.341C755.652 350.426 758.656 353.607 763.734 358.884C767.756 363.1 770.684 366.229 772.517 368.271C773.27 369.124 773.934 369.133 774.507 368.299C775.757 366.48 777.297 364.078 779.126 361.094C779.647 360.336 779.91 359.791 779.914 359.46C779.971 359.052 779.772 358.692 779.317 358.38C778.787 358.015 778.344 357.766 777.989 357.633C777.278 357.368 773.806 355.762 767.571 352.816L760.842 349.696C756.531 347.848 754.193 347.19 753.828 347.721ZM752.988 297.069C754.134 295.402 754.812 294.416 755.02 294.113C755.75 293.052 756.834 293.017 758.275 294.007L795.076 319.14L803.035 324.612C803.717 325.081 804.17 325.559 804.392 326.047C804.667 326.46 804.802 326.831 804.797 327.163C804.769 327.367 804.729 327.507 804.676 327.582L798.658 336.337C798.345 336.792 797.883 336.976 797.272 336.891C796.585 336.754 795.938 336.477 795.332 336.06C770.471 318.968 755.603 308.69 750.728 305.227C749.212 304.185 749.001 302.868 750.096 301.276C750.854 300.011 751.818 298.609 752.988 297.069ZM815.421 349.703C813.905 348.661 812.78 347.943 812.045 347.55C810.856 346.844 810.098 346.323 809.771 345.987C809.497 345.575 809.452 345.153 809.636 344.722C809.821 344.291 810.319 343.405 811.129 342.064C811.493 341.534 812.157 340.65 813.118 339.414C814.004 338.125 814.736 336.898 815.314 335.733C815.759 334.923 816.174 334.482 816.558 334.411C816.993 334.264 817.654 334.44 818.54 334.937C819.905 335.875 820.954 336.541 821.688 336.934L825.063 339.087C826.2 339.869 826.942 340.657 827.288 341.453C827.558 342.197 827.458 342.91 826.989 343.592C826.677 344.047 826.219 344.793 825.618 345.83C825.068 346.792 824.35 347.917 823.465 349.206L822.022 351.06C820.933 352.321 819.717 352.546 818.377 351.735L815.421 349.703Z" fill="#18568F"/>
<path d="M820.502 305.771C870.627 340.916 931.21 357.986 992.309 354.178C1053.41 350.371 1111.4 325.914 1156.77 284.818C1202.15 243.722 1232.21 188.427 1242.03 128.002C1251.85 67.5769 1240.84 5.60409 1210.81 -47.7449C1180.79 -101.094 1133.54 -142.65 1076.79 -165.609C1020.04 -188.568 957.168 -191.563 898.494 -174.099C839.819 -156.636 788.812 -119.759 753.854 -69.5038C718.895 -19.2491 702.062 41.4008 706.096 102.486L744.127 99.9689C740.662 47.5081 755.134 -4.5683 785.157 -47.728C815.18 -90.8876 858.973 -122.568 909.363 -137.566C959.754 -152.564 1013.75 -149.987 1062.49 -130.269C1111.23 -110.551 1151.82 -74.8573 1177.6 -29.0402C1203.39 16.7769 1212.84 69.9931 1204.4 121.887C1195.97 173.782 1170.15 221.269 1131.18 256.562C1092.22 291.856 1042.41 312.858 989.934 316.129C937.461 319.399 885.434 304.741 842.386 274.558L841.692 274.846C829.137 280.06 820.832 292.181 820.502 305.771Z" fill="#F5F3E6"/>
<path d="M930.883 350.986C991.259 361.104 1053.29 350.406 1106.78 320.644C1160.28 290.883 1202.08 243.826 1225.31 187.191C1248.55 130.555 1251.86 67.7038 1234.69 8.94392C1217.51 -49.816 1180.87 -100.997 1130.79 -136.204C1080.71 -171.41 1020.16 -188.551 959.061 -184.819C897.957 -181.087 839.933 -156.702 794.508 -115.662C749.084 -74.6228 718.943 -19.367 709.048 41.046C699.154 101.459 710.094 163.443 740.054 216.83L773.289 198.172C747.56 152.323 738.182 99.0933 746.68 47.2095C755.177 -4.67433 781.046 -52.1318 820.058 -87.3773C859.069 -122.623 908.91 -143.564 961.388 -146.769C1013.86 -149.974 1065.87 -135.251 1108.88 -105.016C1151.89 -74.7795 1183.35 -30.8262 1198.1 19.6378C1212.84 70.1018 1210 124.079 1190.05 172.719C1170.09 221.358 1134.19 261.771 1088.25 287.331C1042.3 312.89 989.036 322.079 937.184 313.389L936.682 313.948C927.598 324.063 925.326 338.579 930.883 350.986Z" fill="#F5F3E6"/>
</svg>
