<svg width="603" height="430" viewBox="0 0 603 430" fill="none" xmlns="http://www.w3.org/2000/svg">
<path d="M-11.5425 44.8888L519.414 0.293307C521.412 0.125427 523.226 1.46387 523.656 3.42323L602.056 361.279C602.562 363.587 600.967 365.828 598.62 366.107L63.8154 429.564C61.7407 429.81 59.8259 428.418 59.4202 426.368L-15.1316 49.6513C-15.5947 47.3111 -13.9197 45.0884 -11.5425 44.8888Z" fill="#EBA0A5"/>
<path d="M49.1306 72.0911L489.001 28.5516C491.019 28.3518 492.868 29.6946 493.302 31.6761L561.267 341.899C561.773 344.208 560.178 346.449 557.831 346.727L93.9055 401.774C91.7389 402.031 89.7659 400.505 89.4709 398.343L45.5613 76.6126C45.2547 74.3663 46.8745 72.3145 49.1306 72.0911Z" fill="#F5F3E6"/>
<path d="M234.036 71.4365H238.116C238.276 71.4365 239.423 74.5031 241.556 80.6365C243.69 86.7165 245.183 91.0898 246.036 93.7565C246.196 94.4498 246.383 94.7965 246.596 94.7965C246.756 94.7965 246.916 94.5565 247.076 94.0765L254.196 71.7565C254.25 71.4898 254.436 71.2765 254.756 71.1165C255.13 70.9565 255.37 70.8765 255.476 70.8765H262.356C262.41 70.8765 262.516 70.9031 262.676 70.9565C262.836 71.0098 262.996 71.1165 263.156 71.2765C263.316 71.3831 263.396 71.5431 263.396 71.7565C264.143 78.7431 265.156 88.7165 266.436 101.676C267.77 114.636 268.41 121.25 268.356 121.516C268.356 121.89 267.503 122.183 265.796 122.396C264.143 122.663 263.21 122.796 262.996 122.796C261.983 122.903 261.29 122.77 260.916 122.396C260.543 122.076 260.303 121.383 260.196 120.316C260.036 118.396 259.503 113.943 258.596 106.956C257.69 99.9165 257.023 95.1431 256.596 92.6365C256.543 92.2631 256.436 92.0765 256.276 92.0765C256.17 92.0765 256.036 92.2898 255.876 92.7165C254.916 95.7031 253.876 99.0098 252.756 102.636C251.69 106.263 250.916 108.93 250.436 110.636C250.17 111.17 249.956 111.463 249.796 111.516C248.89 111.783 247.93 111.916 246.916 111.916C246.063 111.916 245.37 111.863 244.836 111.756C244.303 111.703 243.876 111.516 243.556 111.196C243.29 110.823 243.05 110.343 242.836 109.756C242.356 108.21 241.743 106.476 240.996 104.556C240.303 102.583 239.823 101.196 239.556 100.396C238.17 96.6631 237.316 94.2898 236.996 93.2765C236.996 93.1698 236.943 93.0631 236.836 92.9565C236.783 92.7965 236.73 92.7165 236.676 92.7165C236.516 92.7165 236.436 93.1165 236.436 93.9165C236.223 97.2231 235.903 101.623 235.476 107.116C235.05 112.556 234.676 117.143 234.356 120.876C234.303 121.516 233.956 121.836 233.316 121.836C232.943 121.836 232.25 121.89 231.236 121.996C230.276 122.05 229.423 122.05 228.676 121.996C227.13 121.783 226.356 120.983 226.356 119.596C226.356 119.276 226.383 119.01 226.436 118.796C226.703 117.09 227.983 101.676 230.276 72.5565C230.276 71.8098 230.65 71.4365 231.396 71.4365H234.036ZM276.418 104.396L284.738 72.2365C284.898 72.2365 286.232 72.2365 288.738 72.2365C291.298 72.1831 292.632 72.3698 292.738 72.7965C293.112 74.0231 294.258 78.9298 296.178 87.5165C298.098 96.1031 299.325 101.543 299.858 103.836L303.058 118.076C303.218 118.716 303.298 119.223 303.298 119.596C303.298 120.13 303.138 120.556 302.818 120.876C302.498 121.143 301.965 121.41 301.218 121.676C300.152 122.05 299.058 122.37 297.938 122.636C297.512 122.743 297.218 122.796 297.058 122.796C296.685 122.796 296.392 122.663 296.178 122.396C295.965 122.183 295.805 121.81 295.698 121.276L293.938 113.116C293.778 112.53 293.378 112.236 292.738 112.236L283.858 112.316C283.645 112.316 283.432 112.423 283.218 112.636C283.005 112.796 282.845 112.983 282.738 113.196C282.525 113.73 282.205 114.876 281.778 116.636C281.352 118.343 281.085 119.356 280.978 119.676C280.658 120.476 280.285 121.063 279.858 121.436C279.485 121.756 278.978 121.916 278.338 121.916C278.125 121.916 277.698 121.863 277.058 121.756C276.365 121.596 275.752 121.49 275.218 121.436C274.685 121.383 274.258 121.33 273.938 121.276C272.978 121.116 272.498 120.663 272.498 119.916C272.498 119.65 272.525 119.463 272.578 119.356L276.418 104.396ZM288.738 88.0765C288.632 88.0765 288.472 88.3965 288.258 89.0365C288.045 89.8365 287.512 92.3165 286.658 96.4765C285.965 99.7831 285.432 102.21 285.058 103.756C284.898 104.396 285.112 104.716 285.698 104.716C286.978 104.716 288.632 104.663 290.658 104.556C291.192 104.556 291.538 104.503 291.698 104.396C291.912 104.29 292.018 104.076 292.018 103.756C292.018 103.383 291.992 103.09 291.938 102.876C291.832 102.45 291.458 100.263 290.818 96.3165L290.098 92.0765C289.565 89.4098 289.112 88.0765 288.738 88.0765ZM309.9 120.956L309.74 72.7165C309.74 72.2365 309.874 71.7831 310.14 71.3565C310.407 70.9298 310.727 70.7165 311.1 70.7165C321.66 70.7165 327.5 70.7431 328.62 70.7965C329.314 70.8498 329.82 70.9831 330.14 71.1965C330.514 71.3565 330.7 71.5165 330.7 71.6765C330.807 72.2098 330.86 73.0898 330.86 74.3165C330.86 76.1298 330.647 77.4898 330.22 78.3965C330.114 78.5565 329.9 78.6365 329.58 78.6365H328.86C327.74 78.6898 325.18 78.7165 321.18 78.7165L317.5 78.7965C317.394 81.8898 317.34 90.3431 317.34 104.156L317.42 119.916C317.42 120.983 317.287 121.676 317.02 121.996C316.754 122.263 316.114 122.45 315.1 122.556C314.887 122.61 314.62 122.663 314.3 122.716C313.98 122.77 313.58 122.796 313.1 122.796C312.194 122.796 311.367 122.53 310.62 121.996C310.194 121.676 309.954 121.33 309.9 120.956ZM340.559 104.396L348.879 72.2365C349.039 72.2365 350.372 72.2365 352.879 72.2365C355.439 72.1831 356.772 72.3698 356.879 72.7965C357.252 74.0231 358.399 78.9298 360.319 87.5165C362.239 96.1031 363.466 101.543 363.999 103.836L367.199 118.076C367.359 118.716 367.439 119.223 367.439 119.596C367.439 120.13 367.279 120.556 366.959 120.876C366.639 121.143 366.106 121.41 365.359 121.676C364.292 122.05 363.199 122.37 362.079 122.636C361.652 122.743 361.359 122.796 361.199 122.796C360.826 122.796 360.532 122.663 360.319 122.396C360.106 122.183 359.946 121.81 359.839 121.276L358.079 113.116C357.919 112.53 357.519 112.236 356.879 112.236L347.999 112.316C347.786 112.316 347.572 112.423 347.359 112.636C347.146 112.796 346.986 112.983 346.879 113.196C346.666 113.73 346.346 114.876 345.919 116.636C345.492 118.343 345.226 119.356 345.119 119.676C344.799 120.476 344.426 121.063 343.999 121.436C343.626 121.756 343.119 121.916 342.479 121.916C342.266 121.916 341.839 121.863 341.199 121.756C340.506 121.596 339.892 121.49 339.359 121.436C338.826 121.383 338.399 121.33 338.079 121.276C337.119 121.116 336.639 120.663 336.639 119.916C336.639 119.65 336.666 119.463 336.719 119.356L340.559 104.396ZM352.879 88.0765C352.772 88.0765 352.612 88.3965 352.399 89.0365C352.186 89.8365 351.652 92.3165 350.799 96.4765C350.106 99.7831 349.572 102.21 349.199 103.756C349.039 104.396 349.252 104.716 349.839 104.716C351.119 104.716 352.772 104.663 354.799 104.556C355.332 104.556 355.679 104.503 355.839 104.396C356.052 104.29 356.159 104.076 356.159 103.756C356.159 103.383 356.132 103.09 356.079 102.876C355.972 102.45 355.599 100.263 354.959 96.3165L354.239 92.0765C353.706 89.4098 353.252 88.0765 352.879 88.0765ZM376.568 82.7165C376.354 82.7165 376.168 82.6365 376.008 82.4765C375.688 82.1565 375.128 81.1698 374.328 79.5165C373.528 77.8098 373.128 76.7698 373.128 76.3965C373.128 76.0231 373.901 75.1965 375.448 73.9165C376.994 72.6365 378.888 71.4898 381.128 70.4765C383.421 69.4631 385.794 68.9565 388.248 68.9565C390.541 68.9565 392.594 69.4631 394.408 70.4765C396.221 71.4898 397.634 72.8498 398.648 74.5565C399.661 76.2098 400.168 77.9698 400.168 79.8365C400.168 82.2365 399.768 84.3698 398.968 86.2365C398.168 88.0498 397.474 89.3565 396.888 90.1565C396.781 90.3165 396.621 90.4498 396.408 90.5565C396.248 90.6631 396.168 90.7698 396.168 90.8765C396.168 91.0365 396.408 91.2765 396.888 91.5965C400.728 94.4231 402.648 99.1431 402.648 105.756C402.648 112.743 400.994 117.516 397.688 120.076C394.381 122.583 390.701 123.836 386.648 123.836C382.808 123.836 379.661 122.823 377.208 120.796C374.754 118.77 372.968 116.423 371.848 113.756C370.781 111.09 370.248 108.796 370.248 106.876C370.248 106.503 370.434 106.103 370.808 105.676C371.181 105.196 371.581 104.823 372.008 104.556C372.968 104.023 374.621 103.356 376.968 102.556C377.074 102.45 377.234 102.45 377.448 102.556C377.714 102.61 377.874 102.69 377.928 102.796C378.034 103.116 378.221 104.316 378.488 106.396C378.808 108.423 379.181 109.836 379.608 110.636C380.248 111.916 381.181 113.01 382.408 113.916C383.688 114.823 385.048 115.276 386.488 115.276C388.834 115.276 390.674 114.29 392.008 112.316C393.394 110.343 394.088 108.05 394.088 105.436C394.088 102.823 393.394 100.583 392.008 98.7165C390.621 96.7965 388.674 95.8098 386.168 95.7565C384.781 95.7031 383.181 95.6765 381.368 95.6765C380.994 95.6765 380.808 94.8498 380.808 93.1965C380.808 92.0765 380.888 91.0098 381.048 89.9965C381.261 88.9831 381.501 88.4765 381.768 88.4765C382.568 88.4765 383.848 88.2631 385.608 87.8365C387.421 87.4098 388.861 86.8765 389.928 86.2365C390.461 85.8631 390.968 85.1431 391.448 84.0765C391.928 83.0098 392.168 82.1298 392.168 81.4365C392.168 77.9698 390.861 76.2365 388.248 76.2365C386.754 76.2365 385.074 76.7698 383.208 77.8365C381.394 78.9031 379.848 80.1565 378.568 81.5965C377.928 82.3431 377.261 82.7165 376.568 82.7165ZM418.07 101.116C418.443 100.316 418.763 99.5431 419.03 98.7965C419.616 97.4631 421.27 93.2765 423.99 86.2365C426.763 79.1431 428.683 74.2098 429.75 71.4365C429.803 71.1698 430.71 71.0365 432.47 71.0365H434.15C434.523 71.0365 434.923 71.0631 435.35 71.1165C435.83 71.1165 436.256 71.0898 436.63 71.0365C437.11 70.9831 437.43 71.0365 437.59 71.1965C437.803 71.3565 437.91 71.6765 437.91 72.1565V85.5165V121.276C437.91 121.65 436.87 121.836 434.79 121.836L431.83 121.756C431.03 121.703 430.576 121.516 430.47 121.196C430.363 120.876 430.283 119.996 430.23 118.556L430.07 93.1965C430.07 93.0898 430.043 92.9565 429.99 92.7965C429.936 92.5831 429.856 92.4765 429.75 92.4765C429.643 92.4765 429.35 93.0898 428.87 94.3165C427.216 98.3698 424.896 103.916 421.91 110.956C418.923 117.943 417.216 121.543 416.79 121.756C416.47 121.916 415.83 121.996 414.87 121.996C413.483 121.996 412.15 121.89 410.87 121.676C410.016 121.463 409.59 120.903 409.59 119.996C409.536 116.423 409.483 110.796 409.43 103.116C409.376 95.3831 409.35 87.7565 409.35 80.2365C409.35 77.6231 409.35 75.8365 409.35 74.8765C409.403 73.8631 409.43 73.2765 409.43 73.1165C409.536 72.3698 409.75 71.8631 410.07 71.5965C410.39 71.2765 410.923 71.0631 411.67 70.9565L413.59 70.8765C414.283 70.8765 415.216 70.9298 416.39 71.0365C416.55 71.0898 416.71 71.2765 416.87 71.5965C417.03 71.9165 417.11 72.2098 417.11 72.4765V72.5565L417.03 101.116C417.03 101.916 417.11 102.316 417.27 102.316C417.43 102.316 417.696 101.916 418.07 101.116ZM454.93 120.236C454.876 120.983 454.663 121.356 454.29 121.356L450.45 121.436C449.383 121.436 448.636 121.41 448.21 121.356C447.676 121.303 447.303 121.196 447.09 121.036C446.93 120.823 446.823 120.476 446.77 119.996C446.77 119.463 446.77 119.09 446.77 118.876V110.236V78.8765V72.6365C446.77 72.5831 446.77 72.4231 446.77 72.1565C446.77 71.8898 446.85 71.6765 447.01 71.5165C447.116 71.4098 447.943 71.3565 449.49 71.3565L454.53 71.4365C454.69 71.4898 454.85 71.5965 455.01 71.7565C455.17 71.8631 455.25 71.9431 455.25 71.9965C455.356 74.3431 455.41 77.7831 455.41 82.3165L455.33 88.8765C455.276 89.1431 455.303 89.3831 455.41 89.5965C455.516 89.7565 455.703 89.8365 455.97 89.8365H456.13C457.143 89.7831 457.996 89.7831 458.69 89.8365C459.383 89.8365 459.943 89.8365 460.37 89.8365H462.45C463.516 89.8365 464.343 89.8098 464.93 89.7565C464.983 89.7565 465.17 89.7031 465.49 89.5965C465.543 88.5831 465.57 87.2231 465.57 85.5165C465.57 83.8098 465.596 82.1298 465.65 80.4765L465.73 72.6365C465.73 72.2098 465.81 71.9165 465.97 71.7565C466.183 71.5965 466.503 71.5165 466.93 71.5165C468.156 71.5165 469.09 71.4898 469.73 71.4365C471.703 71.4365 473.116 71.4098 473.97 71.3565C474.77 71.2498 475.17 71.5698 475.17 72.3165V72.5565C475.063 74.4231 474.956 85.7031 474.85 106.396L474.69 120.316C474.583 121.116 474.423 121.65 474.21 121.916C473.996 122.183 473.516 122.343 472.77 122.396C471.116 122.556 469.223 122.636 467.09 122.636C466.556 122.636 466.13 122.423 465.81 121.996C465.543 121.57 465.41 121.036 465.41 120.396L465.49 110.396C465.49 104.316 465.516 100.53 465.57 99.0365C465.57 98.7165 465.49 98.4765 465.33 98.3165C465.223 98.1565 464.983 98.0498 464.61 97.9965C460.876 97.9965 458.076 97.9698 456.21 97.9165C455.57 97.9165 455.25 98.2631 455.25 98.9565L455.01 116.156C455.01 116.476 455.01 117.036 455.01 117.836C455.063 118.636 455.036 119.436 454.93 120.236Z" fill="#18568F"/>
<rect x="419.05" y="194.15" width="36.4794" height="36.4794" fill="#18568F"/>
<rect x="437.505" y="230.629" width="36.4794" height="36.4794" fill="#EBA0A5"/>
<rect x="455.958" y="267.108" width="36.4794" height="36.4794" fill="#18568F"/>
<rect x="383" y="267.108" width="36.4794" height="36.4794" fill="#EBA0A5"/>
<rect x="401.026" y="230.629" width="36.4794" height="36.4794" fill="#18568F"/>
<rect x="419.479" y="267.108" width="36.4794" height="36.4794" fill="#F5F3E6"/>
<path d="M429.47 224V198.937H445.332V203.743H434.449V208.756H437.813C439.553 208.756 441.064 209.076 442.345 209.717C443.627 210.335 444.623 211.216 445.332 212.361C446.065 213.482 446.431 214.81 446.431 216.344C446.431 217.877 446.065 219.216 445.332 220.361C444.623 221.505 443.627 222.398 442.345 223.039C441.064 223.68 439.564 224 437.848 224H429.47ZM434.449 219.708H437.848C438.901 219.708 439.736 219.411 440.354 218.816C440.972 218.221 441.281 217.419 441.281 216.412C441.281 215.382 440.972 214.57 440.354 213.975C439.736 213.357 438.901 213.048 437.848 213.048H434.449V219.708Z" fill="#F5F3E6"/>
<path d="M409.506 263.999V254.798H410.57C410.822 254.386 411.085 253.825 411.36 253.115C411.658 252.383 411.909 251.547 412.115 250.609C412.321 249.648 412.424 248.618 412.424 247.519L412.63 234.129H426.536V254.798H428.596V263.999H423.789V259.192H414.313V263.999H409.506ZM415.617 254.798H421.729V238.523H417.368L417.231 247.485C417.208 249.087 417.014 250.552 416.647 251.879C416.281 253.184 415.938 254.157 415.617 254.798Z" fill="#EBA0A5"/>
<path d="M393.128 296.959V292.118L401.094 284.427C402.032 283.511 402.73 282.664 403.188 281.886C403.669 281.108 403.909 280.261 403.909 279.346C403.909 278.338 403.635 277.56 403.085 277.011C402.559 276.461 401.826 276.187 400.888 276.187C399.858 276.187 399.045 276.496 398.45 277.114C397.878 277.709 397.592 278.544 397.592 279.62H392.442C392.442 277.972 392.785 276.553 393.472 275.363C394.181 274.15 395.177 273.211 396.459 272.547C397.741 271.884 399.251 271.552 400.991 271.552C402.616 271.552 404.024 271.861 405.214 272.479C406.427 273.074 407.365 273.909 408.029 274.985C408.716 276.061 409.059 277.331 409.059 278.796C409.059 280.421 408.659 281.978 407.858 283.466C407.056 284.953 405.775 286.51 404.012 288.135L399.48 292.324H409.334V296.959H393.128Z" fill="#F5F3E6"/>
<path d="M437.9 297.302C435.405 297.302 433.425 296.684 431.96 295.448C430.495 294.212 429.74 292.541 429.694 290.435H434.844C434.89 291.191 435.176 291.786 435.702 292.221C436.229 292.633 436.961 292.839 437.9 292.839C438.907 292.839 439.673 292.587 440.2 292.083C440.749 291.557 441.024 290.836 441.024 289.92V287.483C441.024 286.544 440.761 285.835 440.234 285.354C439.708 284.85 438.93 284.599 437.9 284.599C437.282 284.599 436.744 284.69 436.286 284.873C435.851 285.033 435.508 285.285 435.256 285.629H430.277L430.449 271.895H445.247V276.53H435.29L435.222 283.054H436.286L435.187 283.912C435.187 282.859 435.588 282.035 436.389 281.44C437.213 280.822 438.323 280.513 439.719 280.513C441.756 280.513 443.336 281.131 444.457 282.367C445.602 283.58 446.174 285.285 446.174 287.483V289.92C446.174 292.209 445.441 294.017 443.977 295.345C442.512 296.65 440.486 297.302 437.9 297.302Z" fill="#18568F"/>
<path d="M468.714 296.959L477.812 276.702H470.808V280.307H465.658V271.895H482.996V276.702L474.207 296.959H468.714Z" fill="#F5F3E6"/>
<path d="M454.241 262.11C452.502 262.11 450.98 261.824 449.675 261.251C448.37 260.679 447.34 259.867 446.585 258.814C445.83 257.761 445.406 256.513 445.315 255.071H450.465C450.556 255.872 450.934 256.502 451.598 256.96C452.284 257.417 453.166 257.646 454.241 257.646C455.363 257.646 456.267 257.349 456.954 256.754C457.663 256.136 458.018 255.369 458.018 254.453C458.018 253.492 457.686 252.725 457.022 252.153C456.359 251.581 455.432 251.295 454.241 251.295H450.636V246.66H454.241C455.386 246.66 456.279 246.362 456.919 245.767C457.56 245.149 457.881 244.416 457.881 243.57C457.881 242.7 457.549 242.025 456.885 241.544C456.244 241.063 455.363 240.823 454.241 240.823C453.303 240.823 452.513 241.052 451.872 241.51C451.232 241.967 450.831 242.597 450.671 243.398H445.521C445.658 241.956 446.116 240.708 446.894 239.656C447.672 238.603 448.702 237.79 449.984 237.218C451.289 236.646 452.777 236.36 454.447 236.36C456.965 236.36 458.968 236.897 460.456 237.973C461.967 239.049 462.722 240.525 462.722 242.402C462.722 243.615 462.447 244.691 461.898 245.63C461.371 246.545 460.605 247.266 459.597 247.793C458.59 248.296 457.377 248.548 455.958 248.548V248.033C457.4 248.01 458.659 248.262 459.735 248.788C460.834 249.315 461.68 250.07 462.276 251.054C462.871 252.016 463.168 253.137 463.168 254.419C463.168 255.953 462.802 257.303 462.07 258.47C461.337 259.615 460.296 260.507 458.945 261.148C457.618 261.789 456.05 262.11 454.241 262.11Z" fill="#18568F"/>
</svg>
