<svg width="58" height="50" viewBox="0 0 58 50" fill="none" xmlns="http://www.w3.org/2000/svg">
<rect width="58" height="49.6458" rx="24.8229" fill="#18568F"/>
<path d="M17.23 26.54C17.11 26.58 17.02 26.62 16.96 26.66C17.22 27.26 18.03 28.84 19.39 31.4L20.47 33.5C20.57 33.7 20.62 33.85 20.62 33.95C20.62 34.09 20.49 34.23 20.23 34.37C19.49 34.73 18.91 34.97 18.49 35.09C18.37 35.15 18.25 35.18 18.13 35.18C17.91 35.18 17.74 35.03 17.62 34.73C17.5 34.53 16.99 33.52 16.09 31.7C15.21 29.88 14.57 28.54 14.17 27.68C14.05 27.44 13.92 27.27 13.78 27.17C13.64 27.07 13.4 27.03 13.06 27.05C13.04 27.45 13.03 29.81 13.03 34.13C13.03 34.47 12.99 34.68 12.91 34.76C12.83 34.84 12.66 34.9 12.4 34.94C12.24 34.98 11.85 35 11.23 35C10.81 35 10.54 34.98 10.42 34.94C10.2 34.86 10.09 34.62 10.09 34.22L10.12 17.36C10.12 16.98 10.26 16.69 10.54 16.49C10.82 16.29 11.13 16.19 11.47 16.19L13.66 16.16C14.56 16.16 15.23 16.18 15.67 16.22C16.53 16.22 17.35 16.43 18.13 16.85C18.93 17.27 19.58 17.86 20.08 18.62C20.58 19.38 20.83 20.26 20.83 21.26C20.83 22.4 20.61 23.34 20.17 24.08C19.73 24.82 19.29 25.34 18.85 25.64C18.43 25.94 17.99 26.21 17.53 26.45C17.47 26.47 17.37 26.5 17.23 26.54ZM13.06 19.67C13.08 20.39 13.09 21.54 13.09 23.12V23.36C13.09 23.54 13.12 23.68 13.18 23.78C13.26 23.86 13.39 23.9 13.57 23.9C13.81 23.9 13.99 23.91 14.11 23.93C14.23 23.93 14.34 23.93 14.44 23.93C14.64 23.93 14.82 23.92 14.98 23.9C15.14 23.9 15.44 23.81 15.88 23.63C16.32 23.45 16.72 23.16 17.08 22.76C17.44 22.36 17.62 21.86 17.62 21.26C17.62 20.38 17.32 19.82 16.72 19.58C16.12 19.32 15.47 19.17 14.77 19.13C14.23 19.13 13.82 19.14 13.54 19.16C13.22 19.16 13.06 19.33 13.06 19.67ZM23.8366 15.98C23.9766 15.98 24.2466 15.97 24.6466 15.95C25.0666 15.93 25.5666 15.92 26.1466 15.92C26.3066 15.92 26.4066 15.96 26.4466 16.04C26.5066 16.1 26.5366 16.21 26.5366 16.37V20.51V29.87C26.5366 29.97 26.5766 30.18 26.6566 30.5C26.7566 30.82 26.9366 31.13 27.1966 31.43C27.4566 31.71 27.8266 31.85 28.3066 31.85C28.7866 31.85 29.1466 31.73 29.3866 31.49C29.6266 31.23 29.7766 30.97 29.8366 30.71C29.8966 30.45 29.9466 30.11 29.9866 29.69C30.0066 29.43 30.0166 28.21 30.0166 26.03C30.0166 19.81 29.9966 16.64 29.9566 16.52C29.9566 16.28 30.0066 16.12 30.1066 16.04C30.2066 15.94 30.3166 15.89 30.4366 15.89C30.5566 15.87 30.6366 15.86 30.6766 15.86H32.3566C32.3966 15.86 32.4566 15.88 32.5366 15.92C32.6366 15.96 32.7266 16.03 32.8066 16.13C32.9066 16.23 32.9566 16.36 32.9566 16.52C32.9966 17.68 33.0166 21.28 33.0166 27.32C33.0166 29.34 33.0066 30.41 32.9866 30.53C32.9066 31.21 32.7066 31.91 32.3866 32.63C32.0666 33.35 31.5866 33.97 30.9466 34.49C30.3066 34.99 29.5066 35.24 28.5466 35.24C27.4466 35.24 26.5366 35 25.8166 34.52C25.0966 34.02 24.5666 33.44 24.2266 32.78C23.8866 32.12 23.7166 31.52 23.7166 30.98V21.29V17.12L23.6866 16.49C23.6866 16.15 23.7366 15.98 23.8366 15.98ZM37.1563 27.08C38.0963 27.08 38.6163 27.13 38.7163 27.23C38.7963 27.29 38.8363 27.65 38.8363 28.31C38.8363 28.87 38.8463 29.27 38.8663 29.51C38.9263 29.95 39.0963 30.42 39.3763 30.92C39.6763 31.4 40.1263 31.64 40.7263 31.64C41.3863 31.64 41.8163 31.36 42.0163 30.8C42.2363 30.24 42.3463 29.46 42.3463 28.46C42.3463 27.82 42.1163 27.3 41.6563 26.9C41.2163 26.48 40.5263 26.01 39.5863 25.49C38.7263 25.03 38.0263 24.6 37.4863 24.2C36.9463 23.8 36.4763 23.27 36.0763 22.61C35.6963 21.93 35.5063 21.11 35.5063 20.15C35.5063 19.45 35.7163 18.75 36.1363 18.05C36.5563 17.35 37.1663 16.77 37.9663 16.31C38.7663 15.85 39.7063 15.62 40.7863 15.62C41.7663 15.62 42.6363 15.87 43.3963 16.37C44.1563 16.85 44.6463 17.33 44.8663 17.81C45.1063 18.29 45.2363 18.54 45.2563 18.56C45.3763 18.74 45.4363 18.87 45.4363 18.95C45.4363 19.03 45.3263 19.15 45.1063 19.31C44.3063 19.79 43.6963 20.14 43.2763 20.36C43.2163 20.4 43.1263 20.41 43.0063 20.39C42.8863 20.37 42.8263 20.34 42.8263 20.3C42.6663 19.86 42.3963 19.47 42.0163 19.13C41.6363 18.79 41.2263 18.62 40.7863 18.62C40.2263 18.62 39.7463 18.77 39.3463 19.07C38.9463 19.37 38.7463 19.85 38.7463 20.51C38.7463 21.01 38.9663 21.43 39.4063 21.77C39.8663 22.11 40.4563 22.44 41.1763 22.76C41.2563 22.8 41.3463 22.85 41.4463 22.91C41.5663 22.95 41.6763 23 41.7763 23.06C42.4163 23.48 42.9763 23.89 43.4563 24.29C43.9563 24.69 44.4563 25.29 44.9563 26.09C45.4763 26.89 45.7363 27.8 45.7363 28.82C45.7363 29.5 45.6063 30.32 45.3463 31.28C45.1063 32.24 44.5963 33.13 43.8163 33.95C43.0363 34.77 41.9163 35.18 40.4563 35.18C39.4563 35.18 38.5863 34.97 37.8463 34.55C37.1263 34.11 36.5763 33.57 36.1963 32.93C35.8163 32.29 35.6163 31.68 35.5963 31.1C35.5763 30.68 35.5663 30.07 35.5663 29.27V27.44C35.5663 27.28 35.5963 27.18 35.6563 27.14C35.6963 27.1 35.7963 27.08 35.9563 27.08H37.1563Z" fill="#F5F3E6"/>
</svg>
