<svg width="331" height="545" viewBox="0 0 331 545" fill="none" xmlns="http://www.w3.org/2000/svg">
<path d="M357.958 140.331C431.716 186.826 453.816 284.31 407.321 358.067C360.826 431.824 263.342 453.925 189.585 407.43C115.827 360.935 93.7267 263.451 140.222 189.693C186.717 115.936 284.201 93.8354 357.958 140.331Z" fill="#F5F3E6"/>
<path d="M128.449 229.78C141.224 244.426 179.701 238.17 214.976 207.401C250.251 176.633 260.814 140.113 248.9 124.717C246.646 122.132 246.003 119.659 246.221 116.435C219.136 121.856 191.615 133.725 168.385 153.987C145.155 174.249 129.658 199.903 121.359 226.862C123.831 226.222 126.946 228.057 128.449 229.78Z" fill="#EBA0A5"/>
<path d="M222.798 355.311C195.745 324.296 178.69 289.112 175.173 257.29C151.311 262.933 130.357 261.489 115.753 249.956C108.729 294.008 120.828 342.616 153.141 379.661C201.235 434.799 278.058 448.19 340.734 419.31C303.444 419.979 258.868 396.664 222.798 355.311Z" fill="#EBA0A5"/>
<path d="M269.869 114.012C280.171 129.297 279.507 151.114 269.063 173.877C300.864 182.546 333.405 204.223 359.707 234.376C395.777 275.729 412.821 323.058 407.844 360.773C444.97 302.601 442.138 224.671 394.045 169.534C361.732 132.488 315.218 113.898 269.869 114.012Z" fill="#EBA0A5"/>
<path d="M257.111 194.934C249.902 205.773 240.329 215.64 230.005 224.646C218.82 234.402 207.853 240.934 196.886 247.465C198.149 276.703 214.453 311.026 239.251 339.456C282.836 389.424 342.136 410.515 370.528 385.75C398.92 360.985 385.328 298.509 342.495 249.402C317.696 220.972 286.658 201.019 257.111 194.934ZM335.579 291.842C339.445 294.537 342.342 299.595 340.404 304.32C339.435 306.683 338.465 309.045 336.745 310.546C335.024 312.047 332.552 312.686 330.08 313.326C317.076 314.049 305.891 323.805 303.408 336.589C302.221 342.176 298.78 345.178 293.084 345.595C287.388 346.012 283.522 343.316 281.376 339.12C276.552 326.641 264.093 319.305 250.229 320.779C244.533 321.196 240.667 318.5 238.521 314.304C236.376 310.107 237.563 304.521 241.865 300.769C252.189 291.763 255.533 278.228 249.848 266.5C247.702 262.304 248.889 256.717 253.191 252.965C257.493 249.213 262.328 249.546 267.055 251.491C278.762 257.966 292.626 256.492 302.09 248.237C305.532 245.235 311.227 244.818 315.954 246.763C319.82 249.459 322.717 254.517 320.779 259.242C318.296 272.027 323.872 285.367 335.579 291.842Z" fill="#EBA0A5"/>
</svg>
