<svg width="389" height="150" viewBox="0 0 389 150" fill="none" xmlns="http://www.w3.org/2000/svg">
<path d="M44.798 60.6582C49.0537 71.0025 43.7653 72.0261 40.3336 69.8929C39.2206 69.8929 9.44822 51.2501 3.04834 67.3885C-14.5669 111.808 48.6811 140.846 77.0625 147.802C105.444 154.759 122.787 138.207 130.764 123.595C138.843 108.796 140.781 84.5472 137.999 72.1187C132.805 58.1136 130.196 40.3982 106.279 20.6427C82.3616 0.887268 67.0455 0.887266 67.0455 0.887266C67.0455 0.887266 44.0621 -4.789 22.2475 12.5737C-5.0209 34.2771 40.3336 49.8065 44.798 60.6582Z" fill="#18568F"/>
<circle cx="30.3299" cy="96.5512" r="14.7472" fill="#EBA0A5"/>
<circle cx="83.7528" cy="30.3276" r="14.7472" fill="#F5F3E6"/>
<circle cx="59.8243" cy="114.358" r="14.7472" fill="#EBA0A5"/>
<circle cx="84.032" cy="125.767" r="9.46045" fill="#F5F3E6"/>
<circle cx="102.952" cy="52.3089" r="9.46045" fill="#EBA0A5"/>
<circle cx="117.422" cy="72.3445" r="9.46045" fill="#F5F3E6"/>
<path d="M62.884 66.5002C74.9044 76.2946 94.4189 94.8816 102.674 102.951" stroke="#F5F3E6" stroke-width="5.7242" stroke-linecap="round"/>
<path d="M226.8 47.8C226.8 57.8667 226.867 64.1667 227 66.7C227 67.0333 227.433 67.2 228.3 67.2C229.367 67.2 230.533 66.9 231.8 66.3C233.133 65.7 234.267 64.7333 235.2 63.4C236.133 62 236.6 60.2667 236.6 58.2C236.6 56.5333 236.567 55.0667 236.5 53.8C236.5 52.6 236.467 51.1667 236.4 49.5C236.4 47.8333 236.433 46.9667 236.5 46.9C236.567 46.8333 237.5 46.8 239.3 46.8H243.7C244.967 46.8 245.7 46.9333 245.9 47.2C246.167 47.4 246.333 48.1333 246.4 49.4V52.9C246.4 57.7667 246.367 60.6667 246.3 61.6C246.167 63.1333 245.667 64.8667 244.8 66.8C243.933 68.6667 242.667 70.0667 241 71C240.6 71.2 240.4 71.4333 240.4 71.7C240.4 71.9 240.6 72.1333 241 72.4C242.867 73.5333 244.467 75.2667 245.8 77.6C246.933 79.7333 247.4 82.3333 247.2 85.4V97.9C247.2 104.7 247.167 108.367 247.1 108.9C247.1 109.1 247.033 109.333 246.9 109.6C246.767 109.8 246.633 109.9 246.5 109.9C246.033 109.967 244.767 110 242.7 110C239.833 110 238.267 110 238 110C237.8 109.933 237.633 109.7 237.5 109.3C237.433 108.9 237.367 107.8 237.3 106C237.3 103.267 237.267 100.867 237.2 98.8C237.2 90.2 237.133 84.9667 237 83.1C236.8 81.5 236.167 80.1667 235.1 79.1C234.033 77.9667 232.8 77.2333 231.4 76.9C230.467 76.6333 229.7 76.5 229.1 76.5C227.7 76.5 227 77.4 227 79.2L226.7 108.5C226.7 109.367 226.2 109.867 225.2 110C224 110.133 222.233 110.2 219.9 110.2C218.167 110.2 217.1 110.1 216.7 109.9C216.5 109.767 216.4 109.433 216.4 108.9V48.3C216.4 47.6333 216.467 47.1667 216.6 46.9C216.8 46.6333 217.2 46.5 217.8 46.5C219.8 46.5 222.333 46.4333 225.4 46.3C225.933 46.3 226.3 46.4 226.5 46.6C226.7 46.7333 226.8 47.0333 226.8 47.5V47.8ZM264.544 51.2C270.61 61.6667 273.777 66.9 274.044 66.9C274.244 66.9 274.977 65.2333 276.244 61.9C277.577 58.5 278.444 56.3 278.844 55.3C279.977 52.2333 280.91 49.8333 281.644 48.1C282.177 47.0333 282.91 46.5 283.844 46.5C284.177 46.5 284.444 46.5333 284.644 46.6L291.944 48.2C292.544 48.2667 292.844 48.5 292.844 48.9C292.844 49.0333 292.777 49.2333 292.644 49.5C292.11 50.7 288.577 59.7667 282.044 76.7C275.51 93.5667 271.677 103.6 270.544 106.8C270.277 107.8 269.81 108.767 269.144 109.7C268.944 110.033 268.544 110.2 267.944 110.2L265.344 109.7C263.01 109.233 261.444 108.9 260.644 108.7C259.844 108.5 259.444 107.767 259.444 106.5C259.444 106.1 259.477 105.8 259.544 105.6L268.944 78.6C267.61 76.4667 263.677 69.8667 257.144 58.8L253.844 53.3C253.244 52.3 252.944 51.6 252.944 51.2C252.944 50.9333 253.11 50.6667 253.444 50.4C253.777 50.0667 254.244 49.7 254.844 49.3L259.444 46.3C259.977 46.0333 260.344 45.9 260.544 45.9C261.144 45.9 261.744 46.3667 262.344 47.3L264.544 51.2ZM320.617 108.2C320.617 79.7333 320.651 63.3667 320.717 59.1C320.717 58.5667 320.617 58.2 320.417 58C320.217 57.7333 319.884 57.6 319.417 57.6C318.551 57.6667 317.751 57.7 317.017 57.7C316.284 57.6333 315.651 57.6 315.117 57.6H312.917C311.717 57.6 310.851 57.6333 310.317 57.7C310.184 57.7 310.017 57.8667 309.817 58.2C309.617 58.4667 309.517 58.7 309.517 58.9C309.517 64.7667 309.484 73.0667 309.417 83.8C309.417 94.5333 309.384 102.567 309.317 107.9C309.184 108.5 308.917 108.9 308.517 109.1C306.917 109.7 305.284 110 303.617 110C303.084 110 302.284 109.933 301.217 109.8C300.617 109.733 300.151 109.467 299.817 109C299.484 108.533 299.317 107.967 299.317 107.3V101.8C299.451 89.6667 299.517 76.6 299.517 62.6C299.517 56.2667 299.484 52.5667 299.417 51.5L299.317 50C299.317 48.1333 299.851 47.2 300.917 47.2L307.617 47.1C322.417 46.9 330.084 46.8333 330.617 46.9C330.951 46.9667 331.184 47.3 331.317 47.9C331.517 48.5 331.617 48.9333 331.617 49.2C331.551 50.6 331.517 62.5333 331.517 85C331.451 92.2667 331.417 100.033 331.417 108.3C331.417 109.5 331.217 110.267 330.817 110.6C330.417 111 329.617 111.133 328.417 111C325.951 111 324.151 110.967 323.017 110.9C322.084 110.833 321.451 110.6 321.117 110.2C320.784 109.8 320.617 109.133 320.617 108.2ZM352.786 83.9C353.253 82.9 353.653 81.9333 353.986 81C354.719 79.3333 356.786 74.1 360.186 65.3C363.653 56.4333 366.053 50.2667 367.386 46.8C367.453 46.4667 368.586 46.3 370.786 46.3H372.886C373.353 46.3 373.853 46.3333 374.386 46.4C374.986 46.4 375.519 46.3667 375.986 46.3C376.586 46.2333 376.986 46.3 377.186 46.5C377.453 46.7 377.586 47.1 377.586 47.7V64.4V109.1C377.586 109.567 376.286 109.8 373.686 109.8L369.986 109.7C368.986 109.633 368.419 109.4 368.286 109C368.153 108.6 368.053 107.5 367.986 105.7L367.786 74C367.786 73.8667 367.753 73.7 367.686 73.5C367.619 73.2333 367.519 73.1 367.386 73.1C367.253 73.1 366.886 73.8667 366.286 75.4C364.219 80.4667 361.319 87.4 357.586 96.2C353.853 104.933 351.719 109.433 351.186 109.7C350.786 109.9 349.986 110 348.786 110C347.053 110 345.386 109.867 343.786 109.6C342.719 109.333 342.186 108.633 342.186 107.5C342.119 103.033 342.053 96 341.986 86.4C341.919 76.7333 341.886 67.2 341.886 57.8C341.886 54.5333 341.886 52.3 341.886 51.1C341.953 49.8333 341.986 49.1 341.986 48.9C342.119 47.9667 342.386 47.3333 342.786 47C343.186 46.6 343.853 46.3333 344.786 46.2L347.186 46.1C348.053 46.1 349.219 46.1667 350.686 46.3C350.886 46.3667 351.086 46.6 351.286 47C351.486 47.4 351.586 47.7667 351.586 48.1V48.2L351.486 83.9C351.486 84.9 351.586 85.4 351.786 85.4C351.986 85.4 352.319 84.9 352.786 83.9Z" fill="#18568F"/>
</svg>
