<svg width="58" height="50" viewBox="0 0 58 50" fill="none" xmlns="http://www.w3.org/2000/svg">
<rect width="58" height="49.6458" rx="24.8229" fill="#18568F"/>
<path d="M20.48 19.13C20.4 19.33 20.19 19.43 19.85 19.43C19.59 19.43 19.39 19.42 19.25 19.4H17.54C16.44 19.4 15.74 19.39 15.44 19.37H15.2C15 19.37 14.88 19.41 14.84 19.49C14.8 19.55 14.76 19.72 14.72 20C14.7 20.52 14.69 21.46 14.69 22.82H16.19C17.91 22.82 18.9 22.85 19.16 22.91C19.42 22.95 19.55 23.21 19.55 23.69C19.55 24.49 19.5 25.08 19.4 25.46C19.32 25.56 19.16 25.63 18.92 25.67C18.7 25.71 18.55 25.73 18.47 25.73L15.14 25.79C14.88 25.79 14.75 25.92 14.75 26.18C14.71 26.94 14.69 27.66 14.69 28.34C14.69 29.18 14.7 29.94 14.72 30.62C14.74 31.28 14.75 31.64 14.75 31.7C15.05 31.68 16.73 31.67 19.79 31.67C20.09 31.67 20.29 31.71 20.39 31.79C20.49 31.85 20.54 31.94 20.54 32.06L20.45 34.52C20.45 34.64 20.38 34.73 20.24 34.79C20.12 34.85 19.97 34.88 19.79 34.88L11.66 34.91C11.48 34.91 11.36 34.87 11.3 34.79C11.24 34.71 11.21 34.59 11.21 34.43C11.21 23.37 11.22 17.55 11.24 16.97C11.24 16.83 11.3 16.68 11.42 16.52C11.56 16.36 11.7 16.28 11.84 16.28H14.24H19.73C20.31 16.28 20.6 16.57 20.6 17.15C20.6 17.19 20.6 17.45 20.6 17.93C20.6 18.39 20.56 18.79 20.48 19.13ZM26.8175 25.49H26.6975V27.95V34.4C26.6975 34.64 26.6475 34.8 26.5475 34.88C26.4675 34.96 26.3075 35.01 26.0675 35.03C25.9075 35.05 25.6475 35.06 25.2875 35.06C25.1675 35.06 24.9975 35.07 24.7775 35.09C24.5775 35.11 24.4075 35.13 24.2675 35.15C24.0675 35.19 23.8975 35.15 23.7575 35.03C23.6175 34.91 23.5175 34.78 23.4575 34.64C23.3975 34.5 23.3675 34.41 23.3675 34.37C23.3675 33.11 23.3775 30.84 23.3975 27.56C23.4175 24.28 23.4275 21.18 23.4275 18.26V16.76C23.4275 16.56 23.4675 16.42 23.5475 16.34C23.6275 16.24 23.7675 16.19 23.9675 16.19L25.7375 16.22C25.7775 16.22 25.8575 16.23 25.9775 16.25C26.0975 16.25 26.2175 16.29 26.3375 16.37C26.4775 16.43 26.5675 16.53 26.6075 16.67C27.0875 17.95 27.8475 19.88 28.8875 22.46C29.9275 25.04 30.5875 26.61 30.8675 27.17C30.9075 26.97 30.9275 26.83 30.9275 26.75C30.9275 21.97 30.8975 18.68 30.8375 16.88C30.8175 16.56 30.8375 16.37 30.8975 16.31C30.9575 16.23 31.1475 16.18 31.4675 16.16C32.5475 16.12 33.2775 16.08 33.6575 16.04C33.8375 16.02 33.9675 16.05 34.0475 16.13C34.1275 16.19 34.1675 16.32 34.1675 16.52C34.1675 18.8 34.1775 20.91 34.1975 22.85C34.1975 28.93 34.2075 32.67 34.2275 34.07C34.2275 34.35 34.1375 34.57 33.9575 34.73C33.7975 34.89 33.6275 34.97 33.4475 34.97L31.7075 34.94C31.6675 34.94 31.5775 34.94 31.4375 34.94C31.2975 34.94 31.1475 34.9 30.9875 34.82C30.8275 34.74 30.7075 34.62 30.6275 34.46C30.4675 34.12 29.9075 32.8 28.9475 30.5C27.9875 28.2 27.3375 26.64 26.9975 25.82L26.8175 25.49ZM44.12 29.12C44.1 28.36 44.09 27.95 44.09 27.89C43.23 27.89 42.56 27.9 42.08 27.92C41.92 27.92 41.81 27.9 41.75 27.86C41.69 27.82 41.66 27.73 41.66 27.59V27.5C41.68 27.2 41.68 26.93 41.66 26.69C41.66 26.45 41.66 26.25 41.66 26.09V25.43C41.66 25.09 41.85 24.9 42.23 24.86C42.87 24.84 43.63 24.84 44.51 24.86C45.39 24.88 46.01 24.89 46.37 24.89C46.41 24.89 46.49 24.9 46.61 24.92C46.73 24.94 46.84 25 46.94 25.1C47.06 25.2 47.12 25.34 47.12 25.52C47.1 26.12 47.09 26.55 47.09 26.81C47.11 27.07 47.12 27.28 47.12 27.44C47.12 27.9 47.11 28.34 47.09 28.76C47.09 30.9 46.68 32.57 45.86 33.77C45.04 34.97 43.77 35.57 42.05 35.57C40.55 35.57 39.4 35.15 38.6 34.31C37.82 33.45 37.32 32.54 37.1 31.58C36.86 30.6 36.74 29.77 36.74 29.09L36.71 20.81C36.71 19.41 37.03 18.32 37.67 17.54C38.31 16.74 39.01 16.21 39.77 15.95C40.53 15.67 41.15 15.53 41.63 15.53C42.49 15.53 43.24 15.73 43.88 16.13C44.54 16.51 45.04 16.96 45.38 17.48C45.74 18 45.96 18.31 46.04 18.41C46.12 18.49 46.16 18.59 46.16 18.71C46.16 18.83 46.07 18.94 45.89 19.04C45.65 19.16 45.25 19.42 44.69 19.82L43.94 20.33C43.86 20.37 43.71 20.24 43.49 19.94C43.27 19.64 43.01 19.38 42.71 19.16C42.41 18.94 42.01 18.83 41.51 18.83C41.03 18.83 40.65 19.07 40.37 19.55C40.11 20.01 39.96 20.48 39.92 20.96C39.9 21.28 39.89 22.68 39.89 25.16V28.97C39.89 29.27 39.94 29.68 40.04 30.2C40.16 30.7 40.39 31.17 40.73 31.61C41.09 32.05 41.58 32.27 42.2 32.27C42.86 32.27 43.35 31.94 43.67 31.28C43.99 30.6 44.14 29.88 44.12 29.12Z" fill="#F5F3E6"/>
</svg>
