<svg width="58" height="50" viewBox="0 0 58 50" fill="none" xmlns="http://www.w3.org/2000/svg">
<rect width="58" height="49.6458" rx="24.8229" fill="#18568F"/>
<path d="M22.65 33.74C22.01 35.08 20.75 35.75 18.87 35.75C17.67 35.75 16.7 35.37 15.96 34.61C15.22 33.85 14.85 32.91 14.85 31.79L14.82 30.26C14.76 26.48 14.73 24.07 14.73 23.03C14.73 22.13 14.74 21.55 14.76 21.29C14.8 19.95 15.1 18.59 15.66 17.21C16.24 15.83 17.42 15.14 19.2 15.14C20.9 15.14 22.05 15.67 22.65 16.73C23.25 17.79 23.55 19 23.55 20.36C23.55 20.7 23.54 20.97 23.52 21.17C23.5 21.35 23.49 21.48 23.49 21.56C23.49 21.68 23.45 21.77 23.37 21.83C23.29 21.87 23.19 21.89 23.07 21.89C22.95 21.89 22.86 21.89 22.8 21.89C22.5 21.91 22.23 21.92 21.99 21.92C21.77 21.9 21.56 21.89 21.36 21.89C21.06 21.89 20.86 21.73 20.76 21.41C20.76 21.33 20.75 21.06 20.73 20.6C20.71 20.14 20.61 19.59 20.43 18.95C20.25 18.31 19.86 17.99 19.26 17.99C18.86 17.99 18.5 18.32 18.18 18.98C17.86 19.62 17.7 20.37 17.7 21.23L17.67 30.14C17.67 30.62 17.78 31.17 18 31.79C18.22 32.39 18.55 32.69 18.99 32.69C19.55 32.69 19.96 32.37 20.22 31.73C20.48 31.07 20.63 30.37 20.67 29.63C20.73 28.87 20.74 28.4 20.7 28.22C20.68 27.98 20.8 27.86 21.06 27.86L22.98 27.77C23.38 27.73 23.58 27.91 23.58 28.31C23.58 28.37 23.58 28.48 23.58 28.64C23.6 28.78 23.61 29 23.61 29.3C23.61 30.9 23.29 32.38 22.65 33.74ZM31.02 22.4C32 22.4 32.49 22.35 32.49 22.25L32.52 16.28C32.52 16.04 32.64 15.92 32.88 15.92H35.31C35.47 15.92 35.57 15.95 35.61 16.01C35.67 16.07 35.7 16.18 35.7 16.34V18.53L35.73 34.22C35.73 34.44 35.68 34.64 35.58 34.82C35.5 35 35.37 35.09 35.19 35.09H33.48C33.06 35.05 32.8 34.98 32.7 34.88C32.62 34.76 32.58 34.48 32.58 34.04V25.85C32.58 25.59 32.48 25.46 32.28 25.46H32.22C31.68 25.48 30.93 25.49 29.97 25.49C29.81 25.49 29.7 25.54 29.64 25.64C29.58 25.74 29.55 25.92 29.55 26.18L29.49 34.64C29.47 34.82 29.41 34.94 29.31 35C29.23 35.04 29.1 35.06 28.92 35.06C28.28 35.06 27.56 35.04 26.76 35C26.64 35 26.56 34.96 26.52 34.88C26.48 34.78 26.46 34.63 26.46 34.43V34.1L26.43 27.62C26.39 20.36 26.36 16.61 26.34 16.37C26.34 16.15 26.45 16.02 26.67 15.98C26.79 15.96 27.1 15.94 27.6 15.92C28.12 15.9 28.47 15.89 28.65 15.89C28.69 15.89 28.78 15.9 28.92 15.92C29.08 15.94 29.22 15.99 29.34 16.07C29.48 16.15 29.55 16.27 29.55 16.43L29.52 22.04C29.5 22.16 29.54 22.25 29.64 22.31C29.74 22.35 29.81 22.37 29.85 22.37C29.91 22.37 30.04 22.38 30.24 22.4C30.46 22.4 30.72 22.4 31.02 22.4ZM40.1998 35.03C39.8198 35.03 39.5598 35.02 39.4198 35L39.2698 35.03C39.0298 35.03 38.9098 34.84 38.9098 34.46V22.31V17.27C38.9298 16.69 38.9498 16.34 38.9698 16.22C39.0098 16.08 39.1198 16.01 39.2998 16.01C39.3798 16.01 39.4798 16.02 39.5998 16.04C39.7398 16.06 39.9198 16.07 40.1398 16.07C40.1998 16.07 40.7398 16.1 41.7598 16.16C41.9798 16.16 42.0898 16.29 42.0898 16.55C42.0498 17.57 42.0298 21.49 42.0298 28.31V33.95C42.0298 34.31 42.0098 34.58 41.9698 34.76C41.9298 34.92 41.8298 35 41.6698 35L40.1998 35.03Z" fill="#F5F3E6"/>
</svg>
