<svg width="179" height="196" viewBox="0 0 179 196" fill="none" xmlns="http://www.w3.org/2000/svg">
<path d="M20.5734 63.0907C18.5339 75.6755 21.3802 88.4581 28.5336 98.839C35.6869 109.22 46.6103 116.42 59.0824 118.975L62.441 104.239C53.7224 102.453 46.0865 97.4198 41.086 90.1631C36.0855 82.9064 34.0958 73.9708 35.5215 65.1735L20.5734 63.0907Z" fill="#18568F"/>
<path d="M146.118 63.682C154.656 63.682 162.845 66.9994 168.883 72.9044C174.921 78.8095 178.312 86.8184 178.312 95.1694C178.313 103.52 174.921 111.529 168.883 117.434C162.845 123.339 154.656 126.657 146.118 126.657V117.18C152.086 117.18 157.811 114.861 162.031 110.734C166.252 106.606 168.623 101.007 168.623 95.1694C168.623 89.3317 166.252 83.7331 162.031 79.6052C157.811 75.4774 152.086 73.1583 146.118 73.1583V63.682Z" fill="#18568F"/>
<path d="M89.8612 12.0287C89.8612 15.219 91.1285 18.2786 93.3844 20.5344C95.6402 22.7903 98.6998 24.0576 101.89 24.0576C105.08 24.0576 108.14 22.7903 110.396 20.5344C112.652 18.2786 113.919 15.219 113.919 12.0287L101.89 12.0287L89.8612 12.0287Z" fill="#EBA0A5"/>
<path d="M133.024 164.516C133.024 156.165 129.706 148.156 123.801 142.251C117.896 136.346 109.887 133.028 101.536 133.028C93.1852 133.028 85.1763 136.346 79.2713 142.251C73.3662 148.156 70.0488 156.165 70.0488 164.516L101.536 164.516H133.024Z" fill="#18568F"/>
<circle cx="101.538" cy="95.1696" r="55.5451" fill="#EBA0A5"/>
<path d="M133.024 49.8843C133.024 41.5334 129.706 33.5244 123.801 27.6194C117.896 21.7144 109.887 18.397 101.536 18.397C93.1852 18.397 85.1763 21.7144 79.2713 27.6194C73.3662 33.5244 70.0488 41.5334 70.0488 49.8843L101.536 49.8843H133.024Z" fill="#18568F"/>
<path d="M95.672 72.6304C97.7324 67.2505 105.344 67.2505 107.404 72.6304C108.692 75.9942 112.54 77.5879 115.829 76.1203C121.091 73.7731 126.472 79.155 124.125 84.4161C122.658 87.7057 124.251 91.5531 127.615 92.8414C132.995 94.9019 132.995 102.513 127.615 104.574C124.251 105.862 122.658 109.709 124.125 112.999C126.472 118.26 121.091 123.642 115.829 121.295C112.54 119.827 108.692 121.421 107.404 124.785C105.344 130.164 97.7324 130.164 95.672 124.785C94.3837 121.421 90.5362 119.827 87.2467 121.295C81.9856 123.642 76.6036 118.26 78.9508 112.999C80.4184 109.709 78.8248 105.862 75.4609 104.574C70.0811 102.513 70.0811 94.9019 75.4609 92.8414C78.8248 91.5531 80.4184 87.7057 78.9508 84.4161C76.6036 79.155 81.9856 73.7731 87.2467 76.1203C90.5362 77.5879 94.3837 75.9942 95.672 72.6304Z" fill="#18568F"/>
<path d="M101.892 60.1445L102.475 77.7901C102.712 84.9589 111.284 88.5094 116.52 83.6079L129.41 71.543L117.345 84.4328C112.444 89.6695 115.994 98.2412 123.163 98.4782L140.809 99.0615L123.163 99.6448C115.994 99.8818 112.444 108.453 117.345 113.69L129.41 126.58L116.52 114.515C111.284 109.614 102.712 113.164 102.475 120.333L101.892 137.978L101.308 120.333C101.071 113.164 92.4996 109.614 87.2629 114.515L74.3731 126.58L86.438 113.69C91.3395 108.453 87.789 99.8818 80.6202 99.6448L62.9746 99.0615L80.6202 98.4782C87.789 98.2412 91.3395 89.6695 86.438 84.4328L74.3731 71.543L87.2629 83.6079C92.4996 88.5094 101.071 84.9589 101.308 77.7901L101.892 60.1445Z" fill="#F5F3E6"/>
</svg>
