<svg width="146" height="146" viewBox="0 0 146 146" fill="none" xmlns="http://www.w3.org/2000/svg">
<path d="M67.6391 99.5919C70.3734 96.1258 75.6285 96.1257 78.3627 99.5919L95.7525 121.636C99.2856 126.115 96.0954 132.695 90.3907 132.695H55.6112C49.9065 132.695 46.7162 126.115 50.2494 121.636L67.6391 99.5919Z" fill="#EBA0A5"/>
<ellipse cx="73.3104" cy="92.0943" rx="16.1532" ry="18.2779" fill="#18568F"/>
<path d="M68.4271 5.7969C70.7591 2.84074 75.2409 2.84075 77.5729 5.79691L128.78 70.7098C131.793 74.5297 129.072 80.1416 124.207 80.1416H21.7934C16.928 80.1416 14.2071 74.5296 17.2205 70.7098L68.4271 5.7969Z" fill="#EBA0A5"/>
<line x1="52.1631" y1="127.381" x2="93.8372" y2="127.381" stroke="#18568F" stroke-width="12.377" stroke-linecap="round"/>
<path d="M66.9499 3.4206C64.2208 3.4206 61.9931 5.63395 61.9744 8.36426C61.9556 11.0946 64.1529 13.3079 66.8821 13.3079L66.916 8.36426L66.9499 3.4206ZM79.8092 13.3079C82.5384 13.3079 84.766 11.0946 84.7847 8.36426C84.8035 5.63395 82.6062 3.4206 79.877 3.4206L79.8431 8.36426L79.8092 13.3079ZM66.916 8.36426L66.8821 13.3079L79.8092 13.3079L79.8431 8.36426L79.877 3.4206L66.9499 3.4206L66.916 8.36426Z" fill="#18568F"/>
<line x1="6.55253" y1="-6.55253" x2="110.877" y2="-6.55253" transform="matrix(0.999928 -0.0119688 0.00934821 0.999956 13.667 82.9531)" stroke="#18568F" stroke-width="13.1051" stroke-linecap="round"/>
</svg>
