<svg width="117" height="233" viewBox="0 0 117 233" fill="none" xmlns="http://www.w3.org/2000/svg">
<path d="M25.1266 121.549C11.4913 109.862 20.2569 102.07 20.2569 102.07L44.6056 124.471L45.5795 132.263C45.5795 132.263 38.7619 133.237 25.1266 121.549Z" fill="#18568F"/>
<path d="M58.1836 51.4243V200.438L45.5831 127.392L22.2094 104.018" stroke="#18568F" stroke-width="3" stroke-linecap="round"/>
<rect x="0.78125" y="142.977" width="114.926" height="27.2706" rx="13.6353" fill="#18568F"/>
<path d="M10.5215 150.768H104.021V212.579C104.021 223.625 95.0662 232.579 84.0205 232.579H30.5215C19.4758 232.579 10.5215 223.625 10.5215 212.579V150.768Z" fill="#18568F"/>
<rect x="15.9922" y="45.147" width="11.9778" height="87.6554" rx="5.98888" transform="rotate(-65 15.9922 45.147)" fill="#EBA0A5"/>
<rect x="45.1465" y="100.495" width="11.9778" height="87.6554" rx="5.98888" transform="rotate(-155 45.1465 100.495)" fill="#EBA0A5"/>
<rect x="19.1094" y="78.8579" width="11.9778" height="87.6554" rx="5.98888" transform="rotate(-110 19.1094 78.8579)" fill="#EBA0A5"/>
<rect x="37.6279" y="19.1011" width="11.9778" height="87.6554" rx="5.98888" transform="rotate(-20 37.6279 19.1011)" fill="#EBA0A5"/>
<circle cx="57.2711" cy="59.2159" r="7.79159" fill="#18568F"/>
</svg>
