<svg width="59" height="118" viewBox="0 0 59 118" fill="none" xmlns="http://www.w3.org/2000/svg">
<path d="M12.7268 61.5655C5.82043 55.6457 10.2603 51.6992 10.2603 51.6992L22.5931 63.0454L23.0864 66.9919C23.0864 66.9919 19.6332 67.4853 12.7268 61.5655Z" fill="#18568F"/>
<path d="M29.4707 26.0469V101.524L23.0885 64.5253L11.2494 52.6858" stroke="#18568F" stroke-width="1.51953" stroke-linecap="round"/>
<rect x="0.395508" y="72.4189" width="58.211" height="13.8128" rx="6.90639" fill="#18568F"/>
<path d="M5.3291 76.3647H52.6872V107.673C52.6872 113.268 48.1518 117.803 42.557 117.803H15.4593C9.86452 117.803 5.3291 113.268 5.3291 107.673V76.3647Z" fill="#18568F"/>
<rect x="8.09961" y="22.8667" width="6.06684" height="44.3982" rx="3.03342" transform="rotate(-65 8.09961 22.8667)" fill="#EBA0A5"/>
<rect x="22.8672" y="50.9014" width="6.06684" height="44.3982" rx="3.03342" transform="rotate(-155 22.8672 50.9014)" fill="#EBA0A5"/>
<rect x="9.67871" y="39.9419" width="6.06684" height="44.3982" rx="3.03342" transform="rotate(-110 9.67871 39.9419)" fill="#EBA0A5"/>
<rect x="19.0586" y="9.67432" width="6.06684" height="44.3982" rx="3.03342" transform="rotate(-20 19.0586 9.67432)" fill="#EBA0A5"/>
<circle cx="29.008" cy="29.9934" r="3.94651" fill="#18568F"/>
</svg>
