<svg width="242" height="241" viewBox="0 0 242 241" fill="none" xmlns="http://www.w3.org/2000/svg">
<circle cx="123.699" cy="125.651" r="31.5727" transform="rotate(20.4905 123.699 125.651)" fill="#18568F"/>
<circle cx="148.272" cy="179.544" r="47.6812" transform="rotate(20.4905 148.272 179.544)" fill="#18568F"/>
<rect x="75.8258" y="42.6782" width="18.2782" height="94.8637" transform="rotate(-24.5095 75.8258 42.6782)" fill="#EBA0A5"/>
<circle cx="124.833" cy="128.137" r="12.8868" transform="rotate(20.4905 124.833 128.137)" fill="#F5F3E6"/>
<rect x="146.427" y="206.567" width="25.7736" height="5.15473" transform="rotate(-24.5095 146.427 206.567)" fill="#18568F"/>
<rect x="61.8082" y="20.0552" width="23.1963" height="28.351" transform="rotate(-24.5095 61.8082 20.0552)" fill="#18568F"/>
<rect x="82.9137" y="10.4331" width="5.15473" height="7.73209" transform="rotate(-24.5095 82.9137 10.4331)" fill="#EBA0A5"/>
<rect x="87.192" y="19.8135" width="5.15473" height="7.73209" transform="rotate(-24.5095 87.192 19.8135)" fill="#EBA0A5"/>
<rect x="91.4683" y="29.1943" width="5.15473" height="7.73209" transform="rotate(-24.5095 91.4683 29.1943)" fill="#EBA0A5"/>
<rect x="57.1168" y="22.1948" width="5.15473" height="7.73209" transform="rotate(-24.5095 57.1168 22.1948)" fill="#EBA0A5"/>
<rect x="61.3961" y="31.5752" width="5.15473" height="7.73209" transform="rotate(-24.5095 61.3961 31.5752)" fill="#EBA0A5"/>
<rect x="65.6724" y="40.9561" width="5.15473" height="7.73209" transform="rotate(-24.5095 65.6724 40.9561)" fill="#EBA0A5"/>
</svg>
