<svg width="114" height="185" viewBox="0 0 114 185" fill="none" xmlns="http://www.w3.org/2000/svg">
<rect y="13" width="114" height="158" fill="#EBA0A5"/>
<rect y="13" width="114" height="158" rx="57" fill="#18568F"/>
<rect x="11" y="29" width="91" height="126" fill="#F5F3E6"/>
<rect x="11" y="29" width="91" height="126" rx="45.5" fill="#EBA0A5"/>
<rect y="171" width="7" height="14" fill="#18568F"/>
<rect x="33" y="171" width="7" height="14" fill="#18568F"/>
<rect x="65" y="171" width="7" height="14" fill="#18568F"/>
<rect x="8" y="171" width="7" height="14" fill="#18568F"/>
<rect x="41" y="171" width="7" height="14" fill="#18568F"/>
<rect x="73" y="171" width="7" height="14" fill="#18568F"/>
<rect x="16" y="171" width="7" height="14" fill="#18568F"/>
<rect x="49" y="171" width="7" height="14" fill="#18568F"/>
<rect x="81" y="171" width="8" height="14" fill="#18568F"/>
<rect x="98" y="171" width="7" height="14" fill="#18568F"/>
<rect x="24" y="171" width="8" height="14" fill="#18568F"/>
<rect x="57" y="171" width="7" height="14" fill="#18568F"/>
<rect x="90" y="171" width="7" height="14" fill="#18568F"/>
<rect x="106" y="171" width="7" height="14" fill="#18568F"/>
<rect width="7" height="13" fill="#18568F"/>
<rect x="33" width="7" height="13" fill="#18568F"/>
<rect x="65" width="7" height="13" fill="#18568F"/>
<rect x="8" width="7" height="13" fill="#18568F"/>
<rect x="41" width="7" height="13" fill="#18568F"/>
<rect x="73" width="7" height="13" fill="#18568F"/>
<rect x="16" width="7" height="13" fill="#18568F"/>
<rect x="49" width="7" height="13" fill="#18568F"/>
<rect x="81" width="8" height="13" fill="#18568F"/>
<rect x="98" width="7" height="13" fill="#18568F"/>
<rect x="24" width="8" height="13" fill="#18568F"/>
<rect x="57" width="7" height="13" fill="#18568F"/>
<rect x="90" width="7" height="13" fill="#18568F"/>
<rect x="106" width="7" height="13" fill="#18568F"/>
<path d="M57.5 52L67.9544 69.7912L88.3823 66.8722L80.9909 86.1384L96.0097 100.29L76.3382 106.523L74.6384 127.088L57.5 115.595L40.3616 127.088L38.6618 106.523L18.9903 100.29L34.0091 86.1384L26.6177 66.8722L47.0456 69.7912L57.5 52Z" fill="#18568F"/>
<path d="M58 66L64.8814 77.7106L78.3276 75.7893L73.4624 88.4708L83.3481 97.7855L70.3998 101.889L69.281 115.425L58 107.86L46.719 115.425L45.6002 101.889L32.6519 97.7855L42.5376 88.4708L37.6724 75.7893L51.1186 77.7106L58 66Z" fill="#F5F3E6"/>
</svg>
