<svg width="131" height="161" viewBox="0 0 131 161" fill="none" xmlns="http://www.w3.org/2000/svg">
<path d="M91.8219 18.9766C91.8219 16.4846 91.1569 14.0169 89.8649 11.7146C88.5728 9.41224 86.679 7.32027 84.2916 5.55813C81.9041 3.79598 79.0699 2.39818 75.9505 1.44451C72.8312 0.490845 69.488 -1.08931e-07 66.1116 0C62.7353 1.08931e-07 59.3921 0.490845 56.2727 1.44451C53.1534 2.39818 50.3192 3.79598 47.9317 5.55813C45.5443 7.32027 43.6505 9.41224 42.3584 11.7146C41.0664 14.0169 40.4014 16.4846 40.4014 18.9766L66.1116 18.9766H91.8219Z" fill="#18568F"/>
<ellipse cx="66.1118" cy="140.182" rx="40.4019" ry="20.2009" fill="#18568F"/>
<circle cx="65.5" cy="77.7422" r="65.5" fill="#18568F"/>
<circle cx="66.1126" cy="78.3548" r="52.6449" fill="#EBA0A5"/>
<path d="M65.498 50.1958C65.498 50.1958 58.1528 79.579 65.498 84.4762C72.8431 89.3734 88.1475 84.4762 88.1475 84.4762" stroke="#18568F" stroke-width="8" stroke-linecap="round"/>
<path d="M59.8398 36.8616C60.1284 36.7916 62.2015 35.6859 63.8971 34.357C64.1895 34.1278 64.3536 33.9036 64.469 33.9247C64.5844 33.9458 64.6232 34.1925 64.6281 35.4987C64.633 36.805 64.6026 39.1634 64.5714 41.5932" stroke="#F5F3E6" stroke-width="2" stroke-linecap="round"/>
<path d="M67.7109 33.771C67.7605 33.771 68.8336 33.771 70.4355 33.8887C71.0008 33.9302 71.0198 34.2417 71.0099 34.711C70.9573 37.2084 69.3112 39.352 68.1858 40.8714C67.8868 41.4169 68.1403 41.5046 68.4652 41.5562C68.7901 41.6078 69.1787 41.6208 69.579 41.6341" stroke="#F5F3E6" stroke-width="2" stroke-linecap="round"/>
<path d="M84.6719 35.7163V44.3836" stroke="#F5F3E6" stroke-width="2" stroke-linecap="round"/>
<path d="M93.3711 50.0913C94.9853 50.0913 98.3343 50.1856 98.6934 50.4857C99.9119 51.5042 97.2072 54.8636 95.5012 56.9441C94.8772 57.705 94.938 58.0165 95.6014 58.4132C96.2647 58.81 97.5784 59.3206 99.6374 59.8718C101.696 60.4229 104.461 60.9992 107.309 61.5929" stroke="#F5F3E6" stroke-width="2" stroke-linecap="round"/>
<path d="M106.615 73.9995C107.754 73.9995 110.171 74.1354 110.497 74.4589C111.586 75.5404 110.506 78.1803 109.905 79.0421C109.209 80.0406 107.425 80.4592 105.109 80.9511C104.643 81.05 104.405 81.0302 104.428 80.963C104.554 80.6087 105.434 80.5909 106.158 80.5951C106.734 80.5985 107.269 80.9908 107.769 81.6139C109.429 83.6862 108.302 87.4147 107.995 88.0435C107.574 88.5648 107.005 88.8906 106.127 89.042C105.573 89.1057 104.798 89.1429 104 89.1813" stroke="#F5F3E6" stroke-width="2" stroke-linecap="round"/>
<path d="M95.8633 96.6909C95.914 97.691 96.2873 100.338 97.1616 101.284C98.0911 102.29 99.7297 101.544 100.17 101.314C100.613 101.083 100.712 100.425 100.779 100.114C100.708 100.342 100.322 102.914 99.8423 106.864C99.6755 108.5 99.6648 109.388 99.6537 110.304" stroke="#F5F3E6" stroke-width="2" stroke-linecap="round"/>
<path d="M83.0742 111.214C83.0742 111.281 83.0742 112.104 83.2075 113.32C83.3426 114.554 85.7801 113.903 86.8287 114.172C87.3101 114.296 87.754 114.687 88.1842 115.122C88.5622 115.504 88.6075 116.163 88.5376 116.792C88.4418 117.071 88.2236 117.269 87.4767 117.618C86.7299 117.967 85.4612 118.461 84.154 118.97" stroke="#F5F3E6" stroke-width="2" stroke-linecap="round"/>
<path d="M84.1562 118.294C84.1675 118.236 84.1788 118.178 84.1903 117.902C84.2018 117.627 84.2131 117.135 84.2247 116.628" stroke="#F5F3E6" stroke-width="2" stroke-linecap="round"/>
<path d="M83.4688 109.982H90.4509" stroke="#F5F3E6" stroke-width="2" stroke-linecap="round"/>
<path d="M70.2497 112.039C70.1968 111.407 69.6815 109.503 68.981 108.597C67.873 107.165 64.1895 108.646 62.6427 109.516C61.4224 110.202 60.8847 111.886 60.372 113.906C59.5306 117.22 60.1686 120.502 61.761 123.622C62.7595 125.579 64.0291 126.619 64.6661 127.086C65.1517 127.442 65.8074 127.461 66.4277 127.409C66.7033 127.386 66.8636 127.168 67.0165 126.906C68.1612 124.942 67.6016 121.715 67.0994 120.666C66.2318 119.924 65.214 119.618 64.1035 119.511C63.5051 119.475 62.8357 119.475 62.146 119.475" stroke="#F5F3E6" stroke-width="2" stroke-linecap="round"/>
<path d="M42 112.155C43.7786 112.147 47.4506 112.055 47.8837 112C48.0389 112.019 48.0632 112.137 47.8042 113.472C47.5451 114.808 47.002 117.359 46.4757 120" stroke="#F5F3E6" stroke-width="2" stroke-linecap="round"/>
<path d="M30.3262 98.5099C30.1923 98.3586 29.6294 97.4394 29.2895 96.1467C28.9755 94.9528 29.2968 93.9483 29.5813 93.5448C30.378 92.415 33.1115 92.5588 34.6089 92.9577C35.8054 93.2764 35.8512 94.6217 36.1524 96.0862C36.3545 97.0687 36.2071 97.9249 36.0584 98.5182C35.4004 101.142 31.4917 102.798 31.374 103.197C31.3157 103.394 31.5774 103.612 31.8568 103.722C32.4705 103.965 33.0983 103.782 33.5078 103.556C34.0148 103.277 34.0915 102.612 34.0688 102.064C33.37 100.183 31.9966 98.2697 30.6017 97.5355C29.9486 97.2893 28.9237 96.9515 27.6406 96.3036" stroke="#F5F3E6" stroke-width="2" stroke-linecap="round"/>
<path d="M27.4067 79.2703C27.1061 79.1262 25.4193 78.9332 23.7206 79.022C23.0927 79.0549 22.9627 79.2909 22.888 79.7133C22.699 80.7824 22.8701 81.7816 23.1175 82.4004C23.3996 83.106 24.0596 83.5025 24.5681 83.7805C25.0998 84.0711 25.7448 84.0398 26.279 83.9558C26.7446 83.8827 27.1624 83.3016 27.5541 82.9584C28.6012 82.0409 25.9119 86.5304 24.9441 87.3617C23.9378 87.8162 22.723 87.9523 21.6665 87.6889C21.4437 87.6238 21.2252 87.6023 21 87.5801" stroke="#F5F3E6" stroke-width="2" stroke-linecap="round"/>
<path d="M20 58.3707C20 58.3878 20.757 57.7757 22.1461 56.5465C22.7782 55.9381 23.2623 55.3611 23.3665 57.618C23.4707 59.8749 23.1803 64.9832 22.9545 70.2414" stroke="#F5F3E6" stroke-width="2" stroke-linecap="round"/>
<path d="M27 57.977C27.0171 57.9593 27.0523 61.1296 27.1227 66.1222C27.1533 68.2885 27.3986 68.9623 27.6272 69.5508C27.8282 70.0681 28.2146 70.3728 28.6788 70.5229C29.2057 70.6933 29.8607 70.4615 30.441 70.1654C31.3618 69.6956 31.7159 68.3507 32.2559 64.7745C32.0921 60.6512 30.3535 57.453 29.1092 56.0682C28.8928 55.9851 28.6511 55.9523 27.8593 56.1164" stroke="#F5F3E6" stroke-width="2" stroke-linecap="round"/>
<path d="M40 38.0027C40.0094 37.9837 40.0187 37.9647 40.0328 40.6254C40.0469 43.286 40.0653 48.627 40.0966 51.4904C40.1279 54.3538 40.1714 54.5779 40.4418 54.9406" stroke="#F5F3E6" stroke-width="2" stroke-linecap="round"/>
<path d="M44 38.9995V49.9666" stroke="#F5F3E6" stroke-width="2" stroke-linecap="round"/>
</svg>
