<svg width="209" height="170" viewBox="0 0 209 170" fill="none" xmlns="http://www.w3.org/2000/svg">
<path d="M36.0713 83.2687C36.0713 74.9938 42.7794 68.2856 51.0543 68.2856H157.6C165.569 68.2856 172.028 74.7453 172.028 82.7137V160.958C172.028 165.862 168.053 169.837 163.149 169.837H48.8346C41.7856 169.837 36.0713 164.123 36.0713 157.074V83.2687Z" fill="#18568F"/>
<mask id="path-2-inside-1_316_23582" fill="white">
<path d="M59.9326 110.459C59.9326 107.394 62.4171 104.91 65.4819 104.91H99.3324C102.091 104.91 104.327 107.146 104.327 109.904V159.847C104.327 162.912 101.842 165.397 98.7775 165.397H63.2622C61.4233 165.397 59.9326 163.906 59.9326 162.067V110.459Z"/>
</mask>
<path d="M59.9326 110.459C59.9326 107.394 62.4171 104.91 65.4819 104.91H99.3324C102.091 104.91 104.327 107.146 104.327 109.904V159.847C104.327 162.912 101.842 165.397 98.7775 165.397H63.2622C61.4233 165.397 59.9326 163.906 59.9326 162.067V110.459Z" fill="#F5F3E6" stroke="#EBA0A5" stroke-width="7.76897" mask="url(#path-2-inside-1_316_23582)"/>
<path d="M125.968 107.13H143.726C146.484 107.13 148.72 109.366 148.72 112.125V130.992C148.72 133.137 146.981 134.876 144.836 134.876H123.748C121.909 134.876 120.419 133.386 120.419 131.547V112.679C120.419 109.615 122.903 107.13 125.968 107.13Z" fill="#18568F" stroke="#EBA0A5" stroke-width="3.32956"/>
<circle cx="94.6148" cy="136.818" r="3.60702" fill="#18568F"/>
<path d="M95.3478 8.88629C100.321 3.96378 108.331 3.96378 113.305 8.88629L172.614 67.5877C180.719 75.6089 175.039 89.4224 163.636 89.4224H45.0164C33.6138 89.4224 27.9337 75.6089 36.0381 67.5877L95.3478 8.88629Z" fill="#EBA0A5"/>
</svg>
