<svg width="169" height="158" viewBox="0 0 169 158" fill="none" xmlns="http://www.w3.org/2000/svg">
<path d="M115.315 135.16H93.0946C91.1592 135.16 90.3523 137.635 91.9156 138.776L114.136 154.991C115.458 155.955 117.315 155.011 117.315 153.375V137.16C117.315 136.056 116.42 135.16 115.315 135.16Z" fill="#18568F"/>
<path d="M47.1212 135.16H69.342C71.2773 135.16 72.0842 137.635 70.5209 138.776L48.3002 154.991C46.9786 155.955 45.1212 155.011 45.1212 153.375V137.16C45.1212 136.056 46.0166 135.16 47.1212 135.16Z" fill="#18568F"/>
<rect y="42.4565" width="169" height="99.267" rx="30" fill="#EBA0A5"/>
<rect x="19.6895" y="53.9419" width="129.621" height="76.2961" rx="30" fill="#F5F3E6"/>
<rect x="45.1211" y="35.8931" width="73.835" height="13.1262" rx="6.56311" fill="#18568F"/>
<path d="M44.5049 8C44.5049 12.4183 48.0866 16 52.5049 16C56.9232 16 60.5049 12.4183 60.5049 8C60.5049 3.58172 56.9232 0 52.5049 0C48.0866 0 44.5049 3.58172 44.5049 8ZM74.0389 36.7136C74.0389 41.1319 77.6206 44.7136 82.0389 44.7136C86.4571 44.7136 90.0389 41.1319 90.0389 36.7136C90.0389 32.2953 86.4571 28.7136 82.0389 28.7136C77.6206 28.7136 74.0389 32.2953 74.0389 36.7136ZM52.5049 8L51.4593 9.07549L80.9932 37.7891L82.0389 36.7136L83.0845 35.6381L53.5505 6.92451L52.5049 8Z" fill="#18568F"/>
<path d="M119.573 8C119.573 12.4183 115.992 16 111.573 16C107.155 16 103.573 12.4183 103.573 8C103.573 3.58172 107.155 0 111.573 0C115.992 0 119.573 3.58172 119.573 8ZM90.0393 36.7136C90.0393 41.1319 86.4575 44.7136 82.0393 44.7136C77.621 44.7136 74.0393 41.1319 74.0393 36.7136C74.0393 32.2953 77.621 28.7136 82.0393 28.7136C86.4575 28.7136 90.0393 32.2953 90.0393 36.7136ZM111.573 8L112.619 9.07549L83.0849 37.7891L82.0393 36.7136L80.9936 35.6381L110.528 6.92451L111.573 8Z" fill="#18568F"/>
<line x1="110.299" y1="67.8882" x2="130.442" y2="88.0306" stroke="#18568F" stroke-width="4" stroke-linecap="round"/>
<line x1="111.94" y1="76.9097" x2="125.989" y2="90.9299" stroke="#18568F" stroke-width="4" stroke-linecap="round"/>
<line x1="120.964" y1="71.9902" x2="127.16" y2="78.1861" stroke="#18568F" stroke-width="4" stroke-linecap="round"/>
<circle cx="10.6646" cy="73.6309" r="5.74272" fill="#18568F"/>
<circle cx="10.6646" cy="86.7574" r="5.74272" fill="#18568F"/>
<circle cx="10.6646" cy="99.063" r="5.74272" fill="#18568F"/>
</svg>
