<svg width="123" height="198" viewBox="0 0 123 198" fill="none" xmlns="http://www.w3.org/2000/svg">
<path d="M57.2206 29.0604C59.3832 37.1703 53.1656 44.1538 49.7865 46.6319L50.4612 47.3077L40.3238 46.6319C37.6209 43.9286 28.8344 40.5494 28.8359 29.0604C28.837 21.023 36.27 6.53297 41.6766 0C45.9568 6.30769 55.0579 20.9506 57.2206 29.0604Z" fill="#18568F"/>
<path d="M49.7596 32.6135C50.9763 37.9428 47.4784 42.532 45.5774 44.1604L45.9569 44.6045L40.2539 44.1604C38.7333 42.3839 33.7902 40.1634 33.791 32.6135C33.7916 27.3317 37.9733 17.8097 41.0149 13.5166C43.4229 17.6617 48.543 27.2841 49.7596 32.6135Z" fill="#F5F3E6"/>
<path d="M45.8092 31.59C46.5189 34.3706 43.7166 38.2412 40.5491 37.8462C37.66 37.486 36.4936 35.5291 36.4941 31.59C36.4945 28.8343 38.9338 23.8663 40.7081 21.6265C42.1127 23.7891 45.0994 28.8095 45.8092 31.59Z" fill="#EBA0A5"/>
<rect x="21" y="155" width="114" height="43" transform="rotate(-90 21 155)" fill="#EBA0A5"/>
<path d="M0 140.571H85.1538L72.989 168.956H13.5165L0 140.571Z" fill="#18568F"/>
<path d="M0 197.341H85.1538L72.989 168.956H13.5165L0 197.341Z" fill="#18568F"/>
<circle cx="101.373" cy="147.329" r="21.6264" fill="#18568F"/>
<circle cx="101.374" cy="147.33" r="10.8132" fill="#F5F3E6"/>
<rect x="10.8135" y="164.901" width="63.5275" height="9.46154" fill="#EBA0A5"/>
</svg>
